<?xml version="1.0" encoding="UTF-8"?>
<svg version="1.1" xmlns="http://www.w3.org/2000/svg" width="3951" height="3636">
<path d="M0 0 C24.04998179 0.00456804 48.09995883 0.0036593 72.14994055 -0.00090924 C100.84964812 -0.00634447 129.54935292 -0.00834863 158.24906093 -0.00529698 C161.33901936 -0.00497673 164.42897779 -0.00466387 167.51893622 -0.00435391 C168.27838156 -0.00427483 169.0378269 -0.00419576 169.82028574 -0.00411428 C180.17069627 -0.00308599 190.52110491 -0.00391394 200.87151519 -0.00634078 C261.17693701 -0.02026304 321.48006649 0.0808784 381.78398162 0.52782898 C386.06810362 0.55954517 390.35223165 0.5900863 394.63636949 0.61958339 C401.97564259 0.67013449 409.31485226 0.72588952 416.65404224 0.78757757 C419.08541986 0.80743372 421.51681008 0.8258101 423.94821084 0.84259439 C427.27453845 0.86602475 430.60076332 0.89533989 433.92702872 0.92624721 C434.88616987 0.93179403 435.84531102 0.93734086 436.83351706 0.94305577 C437.7333152 0.95265264 438.63311335 0.9622495 439.5601781 0.97213718 C440.70848139 0.98155726 440.70848139 0.98155726 441.87998272 0.99116764 C445.80689067 1.18932008 449.71278808 1.69525568 453.62064368 2.12946185 C453.62064368 256.22946185 453.62064368 510.32946185 453.62064368 772.12946185 C382.15115149 772.19004779 310.6816593 772.25063373 237.04642493 772.3130556 C194.52452748 772.35112342 152.0026303 772.3892573 109.48073405 772.42860815 C108.14357089 772.42984537 106.80640772 772.43108255 105.46924455 772.43231969 C104.79877848 772.43294001 104.12831241 772.43356033 103.43752918 772.43419945 C79.75231829 772.45611054 56.06710735 772.47795859 32.38189631 772.49969618 C30.12146167 772.5017713 27.86102702 772.50384807 25.60059238 772.50592525 C-8.97660541 772.537693 -43.55380368 772.56865838 -78.13100427 772.59723529 C-78.8734968 772.59784895 -79.61598932 772.59846261 -80.38098162 772.59909487 C-92.35070098 772.60898271 -104.3204204 772.61880164 -116.29013983 772.6286114 C-150.80394637 772.65689819 -185.31775213 772.68570205 -219.83155531 772.7178646 C-220.54264443 772.718527 -221.25373355 772.7191894 -221.98637082 772.71987187 C-237.60372409 772.73442899 -253.22107709 772.74924768 -268.83842988 772.76431339 C-275.12415973 772.77037249 -281.40988962 772.77639401 -287.69561952 772.7824026 C-288.383527 772.78306109 -289.07143447 772.78371957 -289.78018763 772.78439801 C-311.87410979 772.8055283 -333.96803314 772.82361002 -356.06195924 772.84006222 C-378.97628248 772.85713988 -401.8906007 772.8776734 -424.80491742 772.90213027 C-437.99231794 772.91609959 -451.17971432 772.92742123 -464.3671202 772.93482623 C-473.20470196 772.9400581 -482.04227573 772.94887113 -490.87985143 772.96044959 C-495.89712758 772.96692473 -500.91439238 772.97198283 -505.93167295 772.97262385 C-524.86980647 772.97603716 -543.79437625 773.07855862 -562.72626203 773.59882316 C-563.48688816 773.6196963 -564.24751428 773.64056945 -565.03118969 773.66207511 C-576.7492479 773.99188276 -588.4511494 774.49357916 -600.14546961 775.32184467 C-602.83860195 775.51035889 -605.53257135 775.67953974 -608.22701257 775.84821185 C-628.90900545 777.21932096 -650.63523662 780.04701185 -665.56685632 795.94196185 C-677.44605797 810.27892936 -678.64888628 827.299817 -680.37935632 845.12946185 C-680.4799032 846.16312885 -680.58045007 847.19679584 -680.68404382 848.26178607 C-680.96990051 851.27921581 -681.24163636 854.29743367 -681.50435632 857.31696185 C-681.61771326 858.61101947 -681.61771326 858.61101947 -681.73336023 859.93121967 C-683.25556623 878.78183395 -683.52721433 897.64247609 -683.51802152 916.54417095 C-683.52047467 919.04950463 -683.52336022 921.55483793 -683.52663431 924.06017068 C-683.53274375 929.48651904 -683.53584076 934.91285576 -683.53619433 940.33920731 C-683.5367436 948.46232971 -683.54306989 956.58544095 -683.55045945 964.70855966 C-683.562894 978.55764904 -683.5706977 992.40673751 -683.57593721 1006.25583133 C-683.58126179 1020.27906618 -683.5887542 1034.30229742 -683.59886545 1048.32552966 C-683.59950408 1049.21301487 -683.60014272 1050.10050008 -683.6008007 1051.01487878 C-683.60406732 1055.54059569 -683.60736896 1060.06631257 -683.61068297 1064.59202944 C-683.63456573 1097.304816 -683.65369386 1130.01760394 -683.6702823 1162.73039493 C-683.68671922 1195.11673133 -683.70520219 1227.50306551 -683.72641557 1259.88939914 C-683.72740317 1261.39927538 -683.72740317 1261.39927538 -683.72841071 1262.93965417 C-683.73442541 1272.13353669 -683.74046524 1281.32741919 -683.74653521 1290.52130167 C-683.76162276 1313.37409492 -683.77639519 1336.22688837 -683.79095358 1359.07968196 C-683.79161671 1360.12023439 -683.79227985 1361.16078683 -683.79296308 1362.23287115 C-683.8251767 1412.82356272 -683.85375927 1463.41425625 -683.88204187 1514.00495014 C-683.89185598 1531.55638245 -683.90168616 1549.10781475 -683.91158289 1566.65924701 C-683.91250358 1568.29210663 -683.91250358 1568.29210663 -683.91344288 1569.95795332 C-683.94200714 1620.57770916 -683.97316388 1671.1974633 -684.00496595 1721.81721719 C-684.00704684 1725.13004004 -684.00912602 1728.4428629 -684.01120464 1731.75568576 C-684.03286826 1766.28108469 -684.05465638 1800.80648354 -684.07649849 1835.33188236 C-684.07712252 1836.31829018 -684.07774656 1837.30469801 -684.0783895 1838.32099698 C-684.07952502 1840.11580587 -684.08066069 1841.91061477 -684.08179657 1843.70542367 C-684.18754896 2010.84676621 -684.28264292 2177.98811337 -684.37935632 2345.12946185 C-934.84935632 2345.12946185 -1185.31935632 2345.12946185 -1443.37935632 2345.12946185 C-1443.37935632 1828.01946185 -1443.37935632 1310.90946185 -1443.37935632 778.12946185 C-1799.77935632 778.12946185 -2156.17935632 778.12946185 -2523.37935632 778.12946185 C-2524.36935632 773.67446185 -2524.36935632 773.67446185 -2525.37935632 769.12946185 C-2501.80731327 757.29552967 -2477.18666401 748.01946229 -2452.61978906 738.49417743 C-2440.58655638 733.82826773 -2428.57489392 729.10806076 -2416.56551355 724.38114032 C-2410.72710409 722.08379821 -2404.8872186 719.79021578 -2399.04732507 717.49664935 C-2397.90341303 717.04734561 -2396.75950098 716.59804187 -2395.58092493 716.13512287 C-2382.63656752 711.05137008 -2369.68922076 705.97524396 -2356.74175256 700.89942035 C-2339.95135049 694.31690018 -2323.16450752 687.7253593 -2306.37935632 681.12946185 C-2288.54866612 674.12270912 -2270.71567585 667.1218723 -2252.87935632 660.12946185 C-2235.14754372 653.17785677 -2217.41846901 646.21931636 -2199.69185632 639.25446185 C-2197.94855539 638.56951648 -2197.94855539 638.56951648 -2196.17003626 637.87073383 C-2187.90638764 634.62386873 -2179.64285843 631.37669982 -2171.37935632 628.12946185 C-2161.9419382 624.42092012 -2152.50446743 620.71251245 -2143.06685632 617.00446185 C-2141.90425287 616.54767047 -2140.74164942 616.09087909 -2139.54381555 615.62024555 C-2121.94589229 608.70624636 -2104.34479358 601.80037812 -2086.74175256 594.89942035 C-2069.95135049 588.31690018 -2053.16450752 581.7253593 -2036.37935632 575.12946185 C-2018.54866612 568.12270912 -2000.71567585 561.1218723 -1982.87935632 554.12946185 C-1965.14754372 547.17785677 -1947.41846901 540.21931636 -1929.69185632 533.25446185 C-1928.5296557 532.79783161 -1927.36745508 532.34120136 -1926.17003626 531.87073383 C-1917.90638764 528.62386873 -1909.64285843 525.37669982 -1901.37935632 522.12946185 C-1891.9419382 518.42092012 -1882.50446743 514.71251245 -1873.06685632 511.00446185 C-1871.90425287 510.54767047 -1870.74164942 510.09087909 -1869.54381555 509.62024555 C-1851.94589229 502.70624636 -1834.34479358 495.80037812 -1816.74175256 488.89942035 C-1799.95135049 482.31690018 -1783.16450752 475.7253593 -1766.37935632 469.12946185 C-1748.54866612 462.12270912 -1730.71567585 455.1218723 -1712.87935632 448.12946185 C-1695.14754369 441.17785676 -1677.41848573 434.21927387 -1659.69185632 427.25446185 C-1658.53131738 426.79849628 -1657.37077844 426.3425307 -1656.17507166 425.87274799 C-1644.31645104 421.21352681 -1632.45813284 416.55353654 -1620.60012048 411.89276752 C-1595.89328792 402.18199865 -1571.1829779 392.48036529 -1546.45967859 382.81159076 C-1532.36739689 377.30020773 -1518.278717 371.77968562 -1504.19185632 366.25446185 C-1503.13232752 365.83890033 -1502.07279871 365.42333881 -1500.98116297 364.99518451 C-1493.44713055 362.04019056 -1485.91322729 359.08486739 -1478.37935632 356.12946185 C-1469.77527932 352.75423324 -1461.17114476 349.37915144 -1452.56685632 346.00446185 C-1450.97763864 345.38114978 -1450.97763864 345.38114978 -1449.35631555 344.74524555 C-1433.42532296 338.49721996 -1417.49088451 332.25804617 -1401.55425256 326.02442035 C-1386.32602944 320.06772925 -1371.10178924 314.10093335 -1355.87935632 308.12946185 C-1338.77469961 301.41962969 -1321.66687396 294.71797385 -1304.55562586 288.02496967 C-1289.32694608 282.06809268 -1274.10224819 276.10111339 -1258.87935632 270.12946185 C-1241.77469961 263.41962969 -1224.66687396 256.71797385 -1207.55562586 250.02496967 C-1192.32694608 244.06809268 -1177.10224819 238.10111339 -1161.87935632 232.12946185 C-1144.77469961 225.41962969 -1127.66687396 218.71797385 -1110.55562586 212.02496967 C-1095.32694608 206.06809268 -1080.10224819 200.10111339 -1064.87935632 194.12946185 C-1048.71558194 187.78871997 -1032.54933625 181.45436191 -1016.37935632 175.12946185 C-1000.31392122 168.84527053 -984.25155911 162.55328847 -968.19185632 156.25446185 C-966.60324289 155.63139148 -966.60324289 155.63139148 -964.98253626 154.99573383 C-957.44804581 152.04055745 -949.91368626 149.08504744 -942.37935632 146.12946185 C-933.77527932 142.75423324 -925.17114476 139.37915144 -916.56685632 136.00446185 C-915.50737787 135.58892047 -914.44789942 135.17337909 -913.35631555 134.74524555 C-897.42532296 128.49721996 -881.49088451 122.25804617 -865.55425256 116.02442035 C-850.32602944 110.06772925 -835.10178924 104.10093335 -819.87935632 98.12946185 C-802.77469961 91.41962969 -785.66687396 84.71797385 -768.55562586 78.02496967 C-753.32694598 72.06809264 -738.10228214 66.10102698 -722.87935632 60.12946185 C-710.37783554 55.22565354 -697.87605336 50.32252002 -685.37154382 45.42633685 C-684.40197748 45.04668781 -683.43241113 44.66703876 -682.43346399 44.27588519 C-677.6500502 42.40325046 -672.86605615 40.53211807 -668.08101648 38.66364154 C-659.68158946 35.38314381 -651.2847018 32.09713993 -642.90264124 28.77246723 C-639.22722081 27.31548112 -635.54941581 25.86457201 -631.87136072 24.41425189 C-630.1712493 23.74201062 -628.47224639 23.06695668 -626.77455896 22.38861713 C-611.07902506 16.1187007 -595.06982956 10.65535219 -578.44185632 7.44196185 C-577.4188241 7.24119037 -576.39579187 7.04041889 -575.34175867 6.83356342 C-549.4803719 2.00423815 -523.07655183 1.0049922 -496.83046716 0.92612323 C-494.82273577 0.91669901 -492.81500616 0.9068895 -490.80727834 0.89673397 C-485.32968125 0.87027008 -479.85207634 0.84965971 -474.37445027 0.83025685 C-469.64579683 0.81281806 -464.91715985 0.79209581 -460.18851966 0.77141166 C-446.53243824 0.71176407 -432.876333 0.66028769 -419.22020843 0.61180924 C-418.54045193 0.6093959 -417.86069543 0.60698256 -417.16034025 0.60449609 C-416.47829671 0.60207596 -415.79625318 0.59965583 -415.09354166 0.59716236 C-408.13394795 0.57236459 -401.17436091 0.54587078 -394.21477353 0.51936778 C-319.17330744 0.23411737 -244.13190282 0.06566734 0 0 Z " fill="#F9F9F5" transform="translate(2583.3793563246727,1214.8705381453037)"/>
<path d="M0 0 C949.08 0 1898.16 0 2876 0 C2863.24731602 9.56451299 2847.26189902 15.4628596 2832.546875 21.4453125 C2831.06570539 22.05105901 2829.58463931 22.65705871 2828.10366821 23.26329041 C2811.41847757 30.08398662 2794.69263648 36.8048899 2777.96554184 43.52198029 C2773.49716553 45.31675294 2769.0294868 47.11326039 2764.56176758 48.90966797 C2759.05109779 51.12535016 2753.54039729 53.34095558 2748.0294342 55.5559082 C2732.04143327 61.98186901 2716.05750122 68.41790191 2700.07492065 74.85733032 C2693.44460192 77.52869947 2686.81406579 80.19952893 2680.18352699 82.87035179 C2678.70260754 83.46687558 2677.22168992 84.06340395 2675.74077415 84.6599369 C2657.76559494 91.90055687 2639.78911812 99.13795337 2621.8125 106.375 C2621.01382381 106.69653297 2620.21514763 107.01806595 2619.39226913 107.34934235 C2612.11682615 110.27830556 2604.84137218 113.20724149 2597.56590271 116.13613892 C2586.28736856 120.67655727 2575.0088946 125.21712512 2563.73046875 129.7578125 C2562.54024833 130.23699442 2562.54024833 130.23699442 2561.32598305 130.72585678 C2557.31980937 132.33874044 2553.31363675 133.95162671 2549.3074646 135.56451416 C2542.09050394 138.47006564 2534.87353395 141.37559394 2527.65656471 144.28112411 C2523.64604276 145.89574847 2519.63552141 147.51037431 2515.625 149.125 C2514.02083334 149.77083334 2512.41666667 150.41666667 2510.8125 151.0625 C2510.0184375 151.3821875 2509.224375 151.701875 2508.40625 152.03125 C2424.18752791 185.93748876 2424.18752791 185.93748876 2421.78124523 186.90625191 C2420.17709445 187.55207885 2418.57294368 188.19790583 2416.96879292 188.84373283 C2412.95813333 190.45841411 2408.94747355 192.07309489 2404.93681335 193.68777466 C2397.72096387 196.59285458 2390.50511577 199.49793793 2383.28927517 202.40303993 C2379.28269485 204.01609158 2375.27611336 205.62914031 2371.26953125 207.2421875 C2370.07934859 207.72135431 2370.07934859 207.72135431 2368.86512184 208.21020126 C2357.57807067 212.75435444 2346.29095306 217.29834254 2335.00379562 221.84223175 C2327.73168226 224.76978435 2320.45958562 227.69737848 2313.1875 230.625 C2311.98998611 231.1070993 2311.98998611 231.1070993 2310.76828003 231.59893799 C2286.84457002 241.23026736 2262.92187823 250.86412189 2239 260.5 C2206.1901922 273.71599022 2173.37829984 286.92679897 2140.56582642 300.13616943 C2129.28731781 304.6765779 2118.00886919 309.21713535 2106.73046875 313.7578125 C2105.54024833 314.23699442 2105.54024833 314.23699442 2104.32598305 314.72585678 C2100.31980937 316.33874044 2096.31363675 317.95162671 2092.3074646 319.56451416 C2085.09050394 322.47006564 2077.87353395 325.37559394 2070.65656471 328.28112411 C2066.64604276 329.89574847 2062.63552141 331.51037431 2058.625 333.125 C2057.02083334 333.77083334 2055.41666667 334.41666667 2053.8125 335.0625 C2052.62140625 335.54203125 2052.62140625 335.54203125 2051.40625 336.03125 C1967.18750299 369.9374988 1967.18750299 369.9374988 1964.78124523 370.90625191 C1963.17709445 371.55207885 1961.57294368 372.19790583 1959.96879292 372.84373283 C1955.95813333 374.45841411 1951.94747355 376.07309489 1947.93681335 377.68777466 C1940.72096387 380.59285458 1933.50511577 383.49793793 1926.28927517 386.40303993 C1922.28269485 388.01609158 1918.27611336 389.62914031 1914.26953125 391.2421875 C1913.07934859 391.72135431 1913.07934859 391.72135431 1911.86512184 392.21020126 C1900.57807067 396.75435444 1889.29095306 401.29834254 1878.00379562 405.84223175 C1870.73168226 408.76978435 1863.45958562 411.69737848 1856.1875 414.625 C1855.38915741 414.94639954 1854.59081482 415.26779907 1853.76828003 415.59893799 C1829.84457002 425.23026736 1805.92187823 434.86412189 1782 444.5 C1749.1901922 457.71599022 1716.37829984 470.92679897 1683.56582642 484.13616943 C1672.28731781 488.6765779 1661.00886919 493.21713535 1649.73046875 497.7578125 C1648.93698847 498.07726711 1648.14350819 498.39672173 1647.32598305 498.72585678 C1643.31980937 500.33874044 1639.31363675 501.95162671 1635.3074646 503.56451416 C1628.09050394 506.47006564 1620.87353395 509.37559394 1613.65656471 512.28112411 C1609.64604276 513.89574847 1605.63552141 515.51037431 1601.625 517.125 C1600.02083334 517.77083334 1598.41666667 518.41666667 1596.8125 519.0625 C1596.0184375 519.3821875 1595.224375 519.701875 1594.40625 520.03125 C1510.18747121 553.93751159 1510.18747121 553.93751159 1507.78124523 554.90625191 C1506.17709445 555.55207885 1504.57294368 556.19790583 1502.96879292 556.84373283 C1498.95813333 558.45841411 1494.94747355 560.07309489 1490.93681335 561.68777466 C1483.72096387 564.59285458 1476.50511577 567.49793793 1469.28927517 570.40303993 C1465.28269485 572.01609158 1461.27611336 573.62914031 1457.26953125 575.2421875 C1456.07934859 575.72135431 1456.07934859 575.72135431 1454.86512184 576.21020126 C1443.57807067 580.75435444 1432.29095306 585.29834254 1421.00379562 589.84223175 C1413.73168226 592.76978435 1406.45958562 595.69737848 1399.1875 598.625 C1397.98998611 599.1070993 1397.98998611 599.1070993 1396.76828003 599.59893799 C1372.84457002 609.23026736 1348.92187823 618.86412189 1325 628.5 C1306.69448435 635.87357309 1288.38876254 643.24663297 1270.08203125 650.6171875 C1269.29170061 650.93538641 1268.50136997 651.25358532 1267.68708992 651.58142662 C1258.83228889 655.14647104 1249.97736852 658.71121888 1241.12231445 662.27563477 C1237.88622474 663.57827353 1234.65014148 664.88092832 1231.4140625 666.18359375 C1230.61193769 666.50648188 1229.80981289 666.82937 1228.98338127 667.16204262 C1217.73039136 671.69192939 1206.47847889 676.224483 1195.22731209 680.75889587 C1180.11044988 686.85122155 1164.9916616 692.93873495 1149.87001038 699.01916504 C1148.25106547 699.67015943 1146.63212322 700.32116045 1145.01318359 700.97216797 C1143.79899388 701.46041739 1143.79899388 701.46041739 1142.56027508 701.95853043 C1136.43194893 704.42322269 1130.30492823 706.8911458 1124.17822266 709.35986328 C1115.9423047 712.67833768 1107.70441868 715.99187893 1099.46444607 719.30027294 C1095.09697067 721.05398525 1090.73031116 722.809657 1086.36581421 724.57077026 C1025.48767609 749.12939996 1025.48767609 749.12939996 994.4150238 749.15821838 C993.26745838 749.16315672 992.11989295 749.16809505 990.93755281 749.17318302 C987.7498255 749.18586954 984.56212176 749.19418403 981.37437679 749.20061019 C977.88289462 749.20870343 974.39143336 749.2224069 970.89996624 749.23530388 C963.90952102 749.26016609 956.91907012 749.2795125 949.92860308 749.29704247 C944.01999115 749.31196306 938.11138808 749.32894902 932.20278549 749.34718513 C908.34993521 749.42063051 884.49706702 749.48251245 860.64417344 749.54001717 C853.50880178 749.557287 846.37343238 749.57533114 839.23806381 749.59383392 C744.92680865 749.83828776 650.61547892 749.992727 331.08906502 750.12211341 C313.95470497 750.12346059 296.82034534 750.1253574 279.68598557 750.12877274 C278.4111154 750.12902533 278.4111154 750.12902533 277.11049027 750.12928302 C273.68262385 750.12996248 270.25475743 750.13064431 266.82689101 750.13132701 C234.71016855 750.13770461 202.59344944 750.14021771 170.47672653 750.13566166 C167.36369705 750.13522873 164.25066757 750.13480346 161.13763809 750.13438225 C159.99020292 750.13422282 159.99020292 750.13422282 158.81958723 750.13406018 C147.40242779 750.13253679 135.98527063 750.13361707 124.56811142 750.13614082 C111.7487732 750.13897009 98.92944069 750.13832431 86.11010315 750.13295815 C79.62413043 750.13033207 73.13816577 750.12934056 66.65219295 750.13267338 C60.72662869 750.13567098 54.80108422 750.13398494 48.87552173 750.12868839 C46.74893187 750.12757952 44.62234029 750.12811527 42.49575154 750.13056136 C32.24385219 750.14144917 22.01645921 750.04030383 11.77461529 749.55456352 C10.51154724 749.49644608 10.51154724 749.49644608 9.22296267 749.43715454 C5.94926711 749.26270651 3.12530502 749.04176834 0 748 C0 501.16 0 254.32 0 0 Z " fill="#F9F9F5" transform="translate(1005,95)"/>
</svg>
