<?xml version="1.0" encoding="UTF-8"?>
<svg version="1.1" xmlns="http://www.w3.org/2000/svg" width="380" height="144">
<path d="M0 0 C0.99 0 1.98 0 3 0 C3.05929834 6.66776912 3.05588962 13.33223856 3 20 C2.99613281 21.25039063 2.99226563 22.50078125 2.98828125 23.7890625 C2.72049451 31.0839427 2.72049451 31.0839427 0.6328125 33.73828125 C-0.43140771 34.68284034 -1.51829712 35.60263486 -2.62890625 36.4921875 C-4.928111 39.02065769 -4.87435894 41.84595613 -5.08984375 45.14453125 C-5.20752569 47.01650115 -5.20752569 47.01650115 -4 48 C-3.28317395 57.90906592 -4.42535162 68.09757705 -5 78 C-4.34 78 -3.68 78 -3 78 C-3 78.99 -3 79.98 -3 81 C0.58362776 80.86089513 4.16681498 80.71254587 7.75 80.5625 C8.76578125 80.52318359 9.7815625 80.48386719 10.828125 80.44335938 C11.8078125 80.40146484 12.7875 80.35957031 13.796875 80.31640625 C14.69760742 80.27974854 15.59833984 80.24309082 16.52636719 80.20532227 C18.80212242 80.0164247 20.79712674 79.56804558 23 79 C23.99 79 24.98 79 26 79 C26.33 77.35 26.66 75.7 27 74 C27.33 74.66 27.66 75.32 28 76 C28.99 76 29.98 76 31 76 C31 75.34 31 74.68 31 74 C31.74765625 73.98582031 32.4953125 73.97164063 33.265625 73.95703125 C39.46962109 73.81524366 39.46962109 73.81524366 44.5625 70.6875 C45.2740625 69.3571875 45.2740625 69.3571875 46 68 C46.4125 67.236875 46.825 66.47375 47.25 65.6875 C47.4975 65.130625 47.745 64.57375 48 64 C48.99 64 49.98 64 51 64 C50.67 63.01 50.34 62.02 50 61 C50.66 61 51.32 61 52 61 C52.33 60.01 52.66 59.02 53 58 C53.66 58.66 54.32 59.32 55 60 C56.98 59.01 56.98 59.01 59 58 C58.67 57.01 58.34 56.02 58 55 C58.70125 54.7525 59.4025 54.505 60.125 54.25 C63.10740685 53.08506157 63.10740685 53.08506157 65.75 50.9375 C70.68104427 47.99783899 75.29726696 47.88499008 80.9375 48.125 C83 49 83 49 84.3125 51.5625 C84.539375 52.366875 84.76625 53.17125 85 54 C85.33 54 85.66 54 86 54 C86.85817828 66.96802732 82.32952681 73.38900753 74 83 C69.88594867 87.68329113 67.06098587 90.16760892 61 92 C59.81164181 93.99595762 59.81164181 93.99595762 59 96 C56.62492145 96.02719556 54.25016036 96.04693247 51.875 96.0625 C50.87726563 96.07506836 50.87726563 96.07506836 49.859375 96.08789062 C45.79318646 96.10782292 41.9879908 95.78890161 38 95 C38 94.34 38 93.68 38 93 C37.01 93 36.02 93 35 93 C34.34 92.01 33.68 91.02 33 90 C29.91634129 89.7497843 29.91634129 89.7497843 27 90 C26.13375 91.5778125 26.13375 91.5778125 25.25 93.1875 C23.4338994 96.3786482 21.38008879 99.19489535 19 102 C16 101 16 101 15 100 C15 100.99 15 101.98 15 103 C10.38 103 5.76 103 1 103 C1.66 102.34 2.32 101.68 3 101 C-2.16854227 98.13028969 -2.16854227 98.13028969 -7.8125 96.625 C-10 96 -10 96 -11.8125 93.0625 C-13 90 -13 90 -13 88 C-13.99 87.67 -14.98 87.34 -16 87 C-16 86.34 -16 85.68 -16 85 C-17.65 85 -19.3 85 -21 85 C-21.28875 85.763125 -21.5775 86.52625 -21.875 87.3125 C-23 90 -23 90 -25 93 C-25 93.99 -25 94.98 -25 96 C-25.474375 96.45375 -25.94875 96.9075 -26.4375 97.375 C-28.51534386 99.24416391 -28.51534386 99.24416391 -29 104 C-34.94 103.67 -40.88 103.34 -47 103 C-46.34 102.34 -45.68 101.68 -45 101 C-46.32 101 -47.64 101 -49 101 C-49 100.34 -49 99.68 -49 99 C-49.62648437 98.82984375 -50.25296875 98.6596875 -50.8984375 98.484375 C-52.12433594 98.12085937 -52.12433594 98.12085937 -53.375 97.75 C-54.18710938 97.51796875 -54.99921875 97.2859375 -55.8359375 97.046875 C-58.50045699 95.75790167 -58.92215317 94.69461707 -60 92 C-60.97581759 90.64886795 -61.97029741 89.31053056 -63 88 C-65.0162233 88.71563266 -65.0162233 88.71563266 -67 90 C-67.59070014 91.94603274 -67.59070014 91.94603274 -68 94 C-69.56037247 95.93188973 -70.82318504 96.91427153 -73.0625 98 C-75.33242155 98.97325058 -75.33242155 98.97325058 -77 102 C-80.06966748 103.33463804 -83.18849782 104.4190468 -86.34765625 105.5234375 C-87.22292969 106.01070313 -88.09820312 106.49796875 -89 107 C-89.33 108.65 -89.66 110.3 -90 112 C-93.63 112 -97.26 112 -101 112 C-101 111.34 -101 110.68 -101 110 C-102.64666203 110.1135629 -104.29236082 110.24117381 -105.9375 110.375 C-106.85402344 110.44460937 -107.77054688 110.51421875 -108.71484375 110.5859375 C-109.46894531 110.72257812 -110.22304687 110.85921875 -111 111 C-111.33 111.66 -111.66 112.32 -112 113 C-113.92578125 113.5625 -113.92578125 113.5625 -116.3125 114 C-118.73446207 114.44836323 -120.68985826 114.83180822 -122.86108398 116.00927734 C-125.23499771 117.10884839 -126.94365801 117.30852668 -129.546875 117.4140625 C-130.39121094 117.45273438 -131.23554688 117.49140625 -132.10546875 117.53125 C-132.97816406 117.5621875 -133.85085937 117.593125 -134.75 117.625 C-135.63816406 117.66367188 -136.52632812 117.70234375 -137.44140625 117.7421875 C-139.6273998 117.83620873 -141.81339062 117.92186143 -144 118 C-144 117.34 -144 116.68 -144 116 C-147.3 116 -150.6 116 -154 116 C-154 116.99 -154 117.98 -154 119 C-170.86772499 120.1121902 -187.71444859 121.19678832 -204.625 121.1875 C-205.76686768 121.18814453 -206.90873535 121.18878906 -208.08520508 121.18945312 C-215.86374588 121.13625412 -215.86374588 121.13625412 -217 120 C-219.98277733 119.78841382 -222.95091202 119.62358295 -225.9375 119.5 C-227.59262399 119.43119577 -229.24759071 119.35846293 -230.90234375 119.28125 C-231.63960693 119.25095703 -232.37687012 119.22066406 -233.13647461 119.18945312 C-235 119 -235 119 -237 118 C-239.3329866 117.95977609 -241.66706666 117.95679753 -244 118 C-243.67 117.34 -243.34 116.68 -243 116 C-243.75925781 116.01160156 -244.51851562 116.02320312 -245.30078125 116.03515625 C-246.29464844 116.04417969 -247.28851563 116.05320312 -248.3125 116.0625 C-249.29863281 116.07410156 -250.28476563 116.08570312 -251.30078125 116.09765625 C-254 116 -254 116 -257 115 C-257 114.34 -257 113.68 -257 113 C-260.3 113 -263.6 113 -267 113 C-267 112.34 -267 111.68 -267 111 C-267.99 110.67 -268.98 110.34 -270 110 C-269.505 109.01 -269.505 109.01 -269 108 C-269.7425 107.896875 -270.485 107.79375 -271.25 107.6875 C-274.17014018 106.95746496 -275.73187554 105.93210602 -278 104 C-277.67 102.35 -277.34 100.7 -277 99 C-277.66 99 -278.32 99 -279 99 C-280.4807848 96.0384304 -280.35314037 93.16493705 -280.5625 89.875 C-280.64628906 88.59367187 -280.73007812 87.31234375 -280.81640625 85.9921875 C-280.87699219 85.00476563 -280.93757813 84.01734375 -281 83 C-279.3603125 83.2784375 -279.3603125 83.2784375 -277.6875 83.5625 C-274.06375867 84.2578068 -274.06375867 84.2578068 -271 83 C-271 83.66 -271 84.32 -271 85 C-270.01 85 -269.02 85 -268 85 C-267.34 85.99 -266.68 86.98 -266 88 C-264.99453125 87.69449219 -264.99453125 87.69449219 -263.96875 87.3828125 C-260.17274662 86.89332785 -257.09931682 87.79876863 -253.5 88.875 C-249.35523066 90.06508229 -245.24876298 91.23195439 -241 92 C-241 92.99 -241 93.98 -241 95 C-240.34 94.67 -239.68 94.34 -239 94 C-236.6670134 93.95977609 -234.33293334 93.95679753 -232 94 C-232 94.33 -232 94.66 -232 95 C-225.91662163 95.77325961 -220.06228988 96.09566051 -213.9375 96 C-202.2741147 95.90119581 -190.64716259 96.43302264 -179 97 C-179 97.33 -179 97.66 -179 98 C-172.4 98 -165.8 98 -159 98 C-159 97.67 -159 97.34 -159 97 C-139.82260517 95.51461396 -139.82260517 95.51461396 -131 96 C-130.67 96.33 -130.34 96.66 -130 97 C-122.29477472 96.34701481 -114.64882659 95.12066734 -107 94 C-107 93.34 -107 92.68 -107 92 C-104.39417629 91.06934867 -103.35801776 90.85082593 -100.75 91.9375 C-100.1725 92.288125 -99.595 92.63875 -99 93 C-99 92.34 -99 91.68 -99 91 C-95.535 90.505 -95.535 90.505 -92 90 C-92 89.34 -92 88.68 -92 88 C-89.36 88 -86.72 88 -84 88 C-84.33 87.01 -84.66 86.02 -85 85 C-84.175 85.103125 -83.35 85.20625 -82.5 85.3125 C-78.27768222 84.93550734 -76.14782273 83.47522516 -72.734375 81.09375 C-71 80 -71 80 -69 80 C-69.33 79.01 -69.66 78.02 -70 77 C-68.33333333 76.66666667 -66.66666667 76.33333333 -65 76 C-64.236875 75.71125 -63.47375 75.4225 -62.6875 75.125 C-58.88514764 74.9481464 -56.94876233 76.74706012 -53.96484375 78.96875 C-52.03582474 80.23967889 -52.03582474 80.23967889 -49.81640625 79.59375 C-49.21699219 79.3978125 -48.61757812 79.201875 -48 79 C-47.67 79.33 -47.34 79.66 -47 80 C-44.9412232 80.27953219 -42.88271568 80.44734351 -40.8125 80.62109375 C-40.214375 80.74613281 -39.61625 80.87117188 -39 81 C-38.67 81.66 -38.34 82.32 -38 83 C-31.53138279 81.32784045 -26.48679718 79.08337963 -22 74 C-20.82055898 71.89802666 -20.82055898 71.89802666 -20 70 C-20.66 69.67 -21.32 69.34 -22 69 C-20.68 66.36 -19.36 63.72 -18 61 C-17.34 61 -16.68 61 -16 61 C-16.02320313 59.96359375 -16.04640625 58.9271875 -16.0703125 57.859375 C-16.08907667 56.48959056 -16.10727618 55.1197983 -16.125 53.75 C-16.14175781 53.06808594 -16.15851563 52.38617188 -16.17578125 51.68359375 C-16.22666753 46.44230678 -16.22666753 46.44230678 -15.01147461 44.07104492 C-13.82500553 41.64169006 -13.70269395 39.88473773 -13.62109375 37.19140625 C-13.58693359 36.27939453 -13.55277344 35.36738281 -13.51757812 34.42773438 C-13.49115234 33.48220703 -13.46472656 32.53667969 -13.4375 31.5625 C-13.37721986 29.68868547 -13.31352643 27.81497702 -13.24609375 25.94140625 C-13.21020142 24.69919312 -13.21020142 24.69919312 -13.17358398 23.43188477 C-12.99193997 20.88708027 -12.55046856 18.48889436 -12 16 C-11.34 16 -10.68 16 -10 16 C-9.690625 15.071875 -9.38125 14.14375 -9.0625 13.1875 C-8.375 11.125 -7.6875 9.0625 -7 7 C-5.515 6.505 -5.515 6.505 -4 6 C-3.34 4.989375 -2.68 3.97875 -2 2.9375 C-1.34 1.968125 -0.68 0.99875 0 0 Z M0 7 C1 11 1 11 1 11 Z M-1 11 C0 15 0 15 0 15 Z M-1 17 C0 20 0 20 0 20 Z M-2 20 C-3.35618499 21.12534105 -3.35618499 21.12534105 -3.0625 24.0625 C-3.041875 25.031875 -3.02125 26.00125 -3 27 C-2.67 27 -2.34 27 -2 27 C-1.67 24.69 -1.34 22.38 -1 20 C-1.33 20 -1.66 20 -2 20 Z M-2 27 C-2 28.65 -2 30.3 -2 32 C0.18490007 29.32357511 0.18490007 29.32357511 0 27 C-0.66 27 -1.32 27 -2 27 Z M-4 29 C-3 31 -3 31 -3 31 Z M-6 51 C-5 53 -5 53 -5 53 Z M-7 59 C-6 63 -6 63 -6 63 Z M59.375 65.9375 C56.76784804 67.84822092 56.76784804 67.84822092 56 71 C55.01 70.67 54.02 70.34 53 70 C51.68 71.32 50.36 72.64 49 74 C49.33 74.99 49.66 75.98 50 77 C56.50093939 77.26003758 61.30352229 76.02625378 67 73 C69 72 71 71 73 70 C72.67 69.401875 72.34 68.80375 72 68.1875 C71 66 71 66 71 63 C65.41545907 61.75899091 63.94154109 62.56695777 59.375 65.9375 Z M-7 65 C-6 67 -6 67 -6 67 Z M82 65 C83 67 83 67 83 67 Z M-19 66 C-18 68 -18 68 -18 68 Z M73 66 C74 69 74 69 74 69 Z M81 67 C82 69 82 69 82 69 Z M80 69 C81 71 81 71 81 71 Z M-15 75 C-14 77 -14 77 -14 77 Z M-17 79 C-17.33 79.99 -17.66 80.98 -18 82 C-16.35 82 -14.7 82 -13 82 C-13.33 81.34 -13.66 80.68 -14 80 C-14.99 80.495 -14.99 80.495 -16 81 C-16.33 80.34 -16.66 79.68 -17 79 Z M-13 83 C-12 86 -12 86 -12 86 Z M-12 86 C-11 89 -11 89 -11 89 Z M-218 97 C-218 97.33 -218 97.66 -218 98 C-215.03 98 -212.06 98 -209 98 C-209 97.67 -209 97.34 -209 97 C-211.97 97 -214.94 97 -218 97 Z M-205 98 C-205 98.33 -205 98.66 -205 99 C-203.35 99 -201.7 99 -200 99 C-200 98.67 -200 98.34 -200 98 C-201.65 98 -203.3 98 -205 98 Z M-127 113 C-123 114 -123 114 -123 114 Z M-144 115 C-144 115.33 -144 115.66 -144 116 C-141.36 116 -138.72 116 -136 116 C-136 115.67 -136 115.34 -136 115 C-138.64 115 -141.28 115 -144 115 Z M-235 117 C-235 117.33 -235 117.66 -235 118 C-233.35 118 -231.7 118 -230 118 C-230 117.67 -230 117.34 -230 117 C-231.65 117 -233.3 117 -235 117 Z M-171 117 C-171 117.33 -171 117.66 -171 118 C-169.35 118 -167.7 118 -166 118 C-166 117.67 -166 117.34 -166 117 C-167.65 117 -169.3 117 -171 117 Z " fill="#FAFAF5" transform="translate(293,0)"/>
<path d="M0 0 C3.77504244 0.51477852 6.6174343 1.30871715 10 3 C10.66 2.67 11.32 2.34 12 2 C12 2.66 12 3.32 12 4 C12.66 4 13.32 4 14 4 C14 4.99 14 5.98 14 7 C13.01 7 12.02 7 11 7 C10.95875 7.680625 10.9175 8.36125 10.875 9.0625 C9.62338876 13.26433774 7.59226252 16.41877938 4 19 C0.97855121 19.30919673 -1.00039205 18.77576068 -4 18 C-4.33 17.01 -4.66 16.02 -5 15 C-5.99 14.34 -6.98 13.68 -8 13 C-8 9 -8 9 -6.125 6.8125 C-4 5 -4 5 -2 4 C-0.86649466 1.98330173 -0.86649466 1.98330173 0 0 Z " fill="#FAFAF6" transform="translate(124,124)"/>
<path d="M0 0 C0 0.99 0 1.98 0 3 C-16.79861461 4.10763334 -33.59782739 5.1908548 -50.4375 5.3125 C-52.11259644 5.33860352 -52.11259644 5.33860352 -53.8215332 5.36523438 C-54.84851318 5.36458984 -55.87549316 5.36394531 -56.93359375 5.36328125 C-58.2647522 5.36775269 -58.2647522 5.36775269 -59.62280273 5.37231445 C-62.47747929 4.92521763 -63.77169274 3.77733834 -66 2 C-65.34124878 1.98969254 -64.68249756 1.97938507 -64.00378418 1.96876526 C-57.12515168 1.86028198 -50.24663916 1.74572011 -43.36816406 1.62768555 C-40.80373657 1.58447031 -38.23928278 1.54278621 -35.67480469 1.50268555 C-31.98103933 1.44465704 -28.28740467 1.38105743 -24.59375 1.31640625 C-22.8839093 1.29133751 -22.8839093 1.29133751 -21.13952637 1.26576233 C-14.06109811 1.13510182 -7.04149603 0 0 0 Z " fill="#FFFFFF" transform="translate(139,116)"/>
<path d="M0 0 C0.99 0 1.98 0 3 0 C3.0518709 5.83259465 3.06473619 11.66245575 3.01660156 17.49511719 C3.00269711 19.59305412 3.01046053 21.69111963 3.0234375 23.7890625 C2.82378543 30.95838669 2.82378543 30.95838669 0.375 34.0546875 C-1.5625 35.75 -1.5625 35.75 -5 38 C-4.67 34.37 -4.34 30.74 -4 27 C-3.34 27 -2.68 27 -2 27 C-2 23.04 -2 19.08 -2 15 C-1.34 15 -0.68 15 0 15 C0 10.05 0 5.1 0 0 Z M-1 17 C0 20 0 20 0 20 Z M-2 27 C-2 28.65 -2 30.3 -2 32 C0.18490007 29.32357511 0.18490007 29.32357511 0 27 C-0.66 27 -1.32 27 -2 27 Z " fill="#FFFFFE" transform="translate(293,0)"/>
<path d="M0 0 C0.495 0.99 0.495 0.99 1 2 C-0.61055681 3.77161249 -1.8924757 4.94786701 -4.0625 6 C-6.33242155 6.97325058 -6.33242155 6.97325058 -8 10 C-11.06966748 11.33463804 -14.18849782 12.4190468 -17.34765625 13.5234375 C-18.22292969 14.01070312 -19.09820312 14.49796875 -20 15 C-20.33 16.65 -20.66 18.3 -21 20 C-24.63 20 -28.26 20 -32 20 C-32 19.34 -32 18.68 -32 18 C-32.99 18 -33.98 18 -35 18 C-34 16 -34 16 -32.0625 15.3125 C-30 15 -30 15 -28 16 C-27.67 15.34 -27.34 14.68 -27 14 C-26.34 14.33 -25.68 14.66 -25 15 C-24.67 14.34 -24.34 13.68 -24 13 C-22.07421875 12.18359375 -22.07421875 12.18359375 -19.6875 11.4375 C-18.90761719 11.18871094 -18.12773437 10.93992187 -17.32421875 10.68359375 C-15.22613818 10.06651123 -13.12613612 9.5108565 -11 9 C-11 8.34 -11 7.68 -11 7 C-9.21601386 5.71993203 -7.37146094 4.52339649 -5.5 3.375 C-4.4790625 2.74335937 -3.458125 2.11171875 -2.40625 1.4609375 C-1.6121875 0.97882813 -0.818125 0.49671875 0 0 Z " fill="#FFFFFF" transform="translate(224,92)"/>
<path d="M0 0 C0.33 0 0.66 0 1 0 C1.85754854 12.95851123 -2.66360344 19.40145742 -11 29 C-17.45647141 36.19994388 -17.45647141 36.19994388 -22 37 C-21.319375 36.34 -20.63875 35.68 -19.9375 35 C-14.7072445 29.73994248 -10.1542769 24.78169534 -7 18 C-6.484375 17.525625 -5.96875 17.05125 -5.4375 16.5625 C-3.1755402 14.10384804 -2.78088107 11.18359206 -2 8 C-1.67 8 -1.34 8 -1 8 C-0.67 5.36 -0.34 2.72 0 0 Z " fill="#FFFFFF" transform="translate(378,54)"/>
<path d="M0 0 C0 0.33 0 0.66 0 1 C-0.60328125 1.12117188 -1.2065625 1.24234375 -1.828125 1.3671875 C-3.02695313 1.61855469 -3.02695313 1.61855469 -4.25 1.875 C-5.03890625 2.03742188 -5.8278125 2.19984375 -6.640625 2.3671875 C-8.98382901 2.89702362 -8.98382901 2.89702362 -10.86328125 4.01367188 C-13.23525458 5.10859558 -14.94714764 5.30866815 -17.546875 5.4140625 C-18.39121094 5.45273438 -19.23554688 5.49140625 -20.10546875 5.53125 C-20.97816406 5.5621875 -21.85085937 5.593125 -22.75 5.625 C-23.63816406 5.66367188 -24.52632812 5.70234375 -25.44140625 5.7421875 C-27.6273998 5.83620873 -29.81339062 5.92186143 -32 6 C-32 5.34 -32 4.68 -32 4 C-30.04310963 3.63794536 -28.08442332 3.28558579 -26.125 2.9375 C-25.03445312 2.74027344 -23.94390625 2.54304688 -22.8203125 2.33984375 C-20 2 -20 2 -18 3 C-18 2.34 -18 1.68 -18 1 C-16.948125 1.04125 -15.89625 1.0825 -14.8125 1.125 C-11.1251844 1.22835434 -11.1251844 1.22835434 -8.4375 -0.0625 C-5.30031232 -1.26911065 -3.22280681 -0.74948996 0 0 Z " fill="#FFFFFF" transform="translate(181,112)"/>
<path d="M0 0 C14.6954525 -0.14630428 29.32210248 0.28548816 44 1 C44 1.33 44 1.66 44 2 C28.655 2.495 28.655 2.495 13 3 C13 2.67 13 2.34 13 2 C9.04 2 5.08 2 1 2 C0.67 1.34 0.34 0.68 0 0 Z " fill="#FFFFFF" transform="translate(70,96)"/>
<path d="M0 0 C1.41152344 0.34321289 1.41152344 0.34321289 2.8515625 0.69335938 C4.32882813 1.06364258 4.32882813 1.06364258 5.8359375 1.44140625 C6.82851563 1.68439453 7.82109375 1.92738281 8.84375 2.17773438 C11.30107958 2.78025268 13.75662783 3.38922272 16.2109375 4.00390625 C15.8809375 4.99390625 15.5509375 5.98390625 15.2109375 7.00390625 C9.2709375 6.01390625 9.2709375 6.01390625 3.2109375 5.00390625 C3.2109375 4.34390625 3.2109375 3.68390625 3.2109375 3.00390625 C-0.0890625 2.67390625 -3.3890625 2.34390625 -6.7890625 2.00390625 C-6.7890625 1.34390625 -6.7890625 0.68390625 -6.7890625 0.00390625 C-4.09931111 -1.34096945 -2.89614829 -0.71531373 0 0 Z " fill="#FFFFFF" transform="translate(35.7890625,87.99609375)"/>
<path d="M0 0 C0.66 0.66 1.32 1.32 2 2 C1.360625 2.556875 0.72125 3.11375 0.0625 3.6875 C-2.46438167 6.12781827 -2.46438167 6.12781827 -3 11 C-8.94 10.67 -14.88 10.34 -21 10 C-21 9.67 -21 9.34 -21 9 C-19.78763672 8.96132812 -19.78763672 8.96132812 -18.55078125 8.921875 C-10.44986741 8.58198715 -10.44986741 8.58198715 -4 4 C-2.68861096 3.29114106 -1.36222983 2.60543548 0 2 C0 1.34 0 0.68 0 0 Z " fill="#FFFFFF" transform="translate(267,93)"/>
<path d="M0 0 C0.33 0.99 0.66 1.98 1 3 C-4.54289771 4.92796442 -10.13431802 5.95368606 -16 5 C-17.63964844 3.47729492 -17.63964844 3.47729492 -19 2 C-17.71222656 1.93941406 -16.42445313 1.87882812 -15.09765625 1.81640625 C-13.41925841 1.73201753 -11.74087364 1.6473687 -10.0625 1.5625 C-8.78729492 1.50352539 -8.78729492 1.50352539 -7.48632812 1.44335938 C-6.67744141 1.40146484 -5.86855469 1.35957031 -5.03515625 1.31640625 C-3.91185913 1.26141968 -3.91185913 1.26141968 -2.76586914 1.20532227 C-0.97538674 1.18228937 -0.97538674 1.18228937 0 0 Z " fill="#FFFFFF" transform="translate(313,79)"/>
<path d="M0 0 C0.66 0.33 1.32 0.66 2 1 C2.10655578 7.44070471 1.96205088 13.62641289 1 20 C-2.77019315 14.10907321 -0.83541762 6.57891378 0 0 Z " fill="#FFFFFF" transform="translate(287,47)"/>
<path d="M0 0 C1.98 0 3.96 0 6 0 C6.12375 1.134375 6.2475 2.26875 6.375 3.4375 C6.684375 5.2009375 6.684375 5.2009375 7 7 C7.66 7.33 8.32 7.66 9 8 C8.01 8 7.02 8 6 8 C6 7.34 6 6.68 6 6 C5.01 5.67 4.02 5.34 3 5 C3 4.34 3 3.68 3 3 C2.34 3 1.68 3 1 3 C0.67 2.01 0.34 1.02 0 0 Z " fill="#FFFFFF" transform="translate(274,82)"/>
<path d="M0 0 C5.94 0.99 5.94 0.99 12 2 C11.67 2.99 11.34 3.98 11 5 C7.31733897 4.40049704 3.65456815 3.75241109 0 3 C0 2.01 0 1.02 0 0 Z " fill="#FFFFFF" transform="translate(242,79)"/>
<path d="M0 0 C0.99 0.33 1.98 0.66 3 1 C2.67 1.66 2.34 2.32 2 3 C1.34 2.01 0.68 1.02 0 0 Z " fill="#FFFFFF" transform="translate(228,88)"/>
<path d="M0 0 C4 1 4 1 4 1 Z " fill="#FFFFFF" transform="translate(142,117)"/>
<path d="M0 0 C0.99 0 1.98 0 3 0 C2.67 0.66 2.34 1.32 2 2 C1.34 1.34 0.68 0.68 0 0 Z " fill="#FFFFFF" transform="translate(44,116)"/>
<path d="M0 0 C1 4 1 4 1 4 Z " fill="#FFFFFF" transform="translate(274,85)"/>
<path d="M0 0 C1 4 1 4 1 4 Z " fill="#FFFFFF" transform="translate(276,57)"/>
<path d="M0 0 C0.33 0.66 0.66 1.32 1 2 C0.34 1.67 -0.32 1.34 -1 1 C-0.67 0.67 -0.34 0.34 0 0 Z " fill="#FFFFFF" transform="translate(220,79)"/>
<path d="" fill="#FFFFFF" transform="translate(0,0)"/>
<path d="" fill="#FFFFFF" transform="translate(0,0)"/>
<path d="M0 0 C2 1 2 1 2 1 Z " fill="#FFFFFF" transform="translate(199,89)"/>
<path d="M0 0 C2 1 2 1 2 1 Z " fill="#FFFFFF" transform="translate(260,80)"/>
<path d="M0 0 C2 1 2 1 2 1 Z " fill="#FFFFFF" transform="translate(256,80)"/>
<path d="" fill="#FFFFFF" transform="translate(0,0)"/>
<path d="" fill="#FFFFFF" transform="translate(0,0)"/>
<path d="" fill="#FFFFFF" transform="translate(0,0)"/>
<path d="" fill="#FFFFFF" transform="translate(0,0)"/>
<path d="M0 0 C2 1 2 1 2 1 Z " fill="#FFFFFF" transform="translate(345,72)"/>
<path d="" fill="#FFFFFF" transform="translate(0,0)"/>
<path d="" fill="#FFFFFF" transform="translate(0,0)"/>
<path d="" fill="#FFFFFF" transform="translate(0,0)"/>
<path d="" fill="#FFFFFF" transform="translate(0,0)"/>
<path d="" fill="#FFFFFF" transform="translate(0,0)"/>
<path d="" fill="#FFFFFF" transform="translate(0,0)"/>
<path d="" fill="#FFFFFF" transform="translate(0,0)"/>
<path d="" fill="#FFFFFF" transform="translate(0,0)"/>
<path d="" fill="#FFFFFF" transform="translate(0,0)"/>
<path d="" fill="#FFFFFF" transform="translate(0,0)"/>
<path d="" fill="#FFFFFF" transform="translate(0,0)"/>
<path d="" fill="#FFFFFF" transform="translate(0,0)"/>
<path d="" fill="#FFFFFF" transform="translate(0,0)"/>
<path d="" fill="#FFFFFF" transform="translate(0,0)"/>
<path d="" fill="#FFFFFF" transform="translate(0,0)"/>
<path d="" fill="#FFFFFF" transform="translate(0,0)"/>
<path d="" fill="#FFFFFF" transform="translate(0,0)"/>
<path d="" fill="#FFFFFF" transform="translate(0,0)"/>
<path d="" fill="#FFFFFF" transform="translate(0,0)"/>
<path d="" fill="#FFFFFF" transform="translate(0,0)"/>
<path d="" fill="#FFFFFF" transform="translate(0,0)"/>
<path d="" fill="#FFFFFF" transform="translate(0,0)"/>
<path d="" fill="#FFFFFF" transform="translate(0,0)"/>
<path d="" fill="#FFFFFF" transform="translate(0,0)"/>
<path d="" fill="#FFFFFF" transform="translate(0,0)"/>
<path d="" fill="#FFFFFF" transform="translate(0,0)"/>
<path d="" fill="#FFFFFF" transform="translate(0,0)"/>
<path d="" fill="#FFFFFF" transform="translate(0,0)"/>
<path d="" fill="#FFFFFF" transform="translate(0,0)"/>
<path d="" fill="#FFFFFF" transform="translate(0,0)"/>
<path d="" fill="#FFFFFF" transform="translate(0,0)"/>
<path d="" fill="#FFFFFF" transform="translate(0,0)"/>
<path d="" fill="#FFFFFF" transform="translate(0,0)"/>
</svg>
