<?xml version="1.0" encoding="UTF-8"?>
<svg version="1.1" xmlns="http://www.w3.org/2000/svg" width="849" height="918">
<path d="M0 0 C0.96277321 -0.00581376 1.92554641 -0.01162753 2.91749457 -0.01761746 C6.1327262 -0.03217603 9.34718949 -0.01835118 12.56241512 -0.00457001 C14.89514761 -0.00918053 17.22787719 -0.01553446 19.5606007 -0.02347898 C25.29203886 -0.03842557 31.02325434 -0.03480428 36.75469548 -0.02327592 C43.62297178 -0.01050054 50.49116352 -0.02098615 57.35943565 -0.03212357 C70.81537963 -0.05317173 84.27124758 -0.05136697 97.72719877 -0.03980792 C109.5021429 -0.02974265 121.27705917 -0.02712032 133.05200672 -0.0318985 C134.22394534 -0.03235681 134.22394534 -0.03235681 135.41955948 -0.03282438 C138.59113041 -0.03406975 141.76270133 -0.03534335 144.93427223 -0.03666343 C174.68023787 -0.0488969 204.42615511 -0.0378094 234.17211328 -0.01627585 C260.59715661 0.00270817 287.02212283 0.00100622 313.44716549 -0.01811981 C343.14050048 -0.03953958 372.83379272 -0.04803114 402.52713436 -0.03567076 C405.69259066 -0.0343879 408.85804698 -0.03313654 412.0235033 -0.0318985 C412.80291151 -0.03158219 413.58231973 -0.03126588 414.38534637 -0.03093999 C426.15332025 -0.02639079 437.92126322 -0.03170986 449.68923283 -0.04181671 C463.06965441 -0.05325116 476.44998812 -0.05039989 489.83039875 -0.02869374 C496.65880469 -0.01798177 503.48706789 -0.01356243 510.3154726 -0.02729034 C516.5645325 -0.03919649 522.8132904 -0.03268052 529.06232285 -0.01138014 C531.32461559 -0.00690662 533.58693378 -0.00919705 535.84921021 -0.01888329 C538.92234886 -0.03103349 541.99445093 -0.01858506 545.0675354 0 C545.94748898 -0.00936466 546.82744255 -0.01872933 547.73406139 -0.02837777 C555.3132328 0.06333744 560.92913803 2.51455477 567.22084713 6.62836456 C574.96751825 14.7271571 575.70106595 23.20557407 575.60195065 34.00580597 C575.60709899 35.44256724 575.61438713 36.87932218 575.62363338 38.31606293 C575.64203637 42.19009262 575.62928143 46.06342784 575.60954309 49.937428 C575.593069 54.00558713 575.6019813 58.07370531 575.60706234 62.14188385 C575.61157254 68.96919507 575.59577784 75.79623135 575.56777096 82.62348175 C575.53569809 90.50236087 575.53574818 98.38074504 575.55298573 106.25965941 C575.56887881 113.86082798 575.56210109 121.46181611 575.54504871 129.06297684 C575.53819922 132.28849248 575.53918885 135.51386258 575.54659367 138.73937607 C575.55428565 142.539944 575.54203654 146.33995209 575.51474476 150.14042473 C575.50789115 151.5303055 575.50773035 152.92023886 575.51496029 154.31011772 C575.55113118 162.17268984 575.2150883 167.78972569 570.97084713 174.50336456 C570.41397213 175.39023956 569.85709713 176.27711456 569.28334713 177.19086456 C564.6181835 181.85602819 558.4020136 185.28619204 551.72848892 185.61326307 C550.90284534 185.60616381 550.07720175 185.59906454 549.22653866 185.59175014 C548.26977545 185.58612401 547.31301224 185.58049787 546.3272562 185.57470125 C545.27869638 185.5634012 544.23013657 185.55210115 543.14980221 185.54045868 C542.03307314 185.53269647 540.91634407 185.52493426 539.76577473 185.51693684 C537.31192603 185.4993887 534.85809306 185.47953128 532.40427876 185.45769691 C528.40829105 185.42231548 524.41228516 185.39268145 520.41623592 185.36542511 C519.72780493 185.36072343 519.03937394 185.35602174 518.3300814 185.35117758 C516.91232638 185.34152105 515.49457115 185.33189407 514.07681572 185.32229556 C511.87875924 185.30722017 509.6807079 185.29151348 507.48265648 185.27571857 C496.72079032 185.19956124 485.9590066 185.15186017 475.19692135 185.12056732 C474.4151822 185.11826463 473.63344306 185.11596193 472.82801485 185.11358946 C465.55927006 185.09243038 458.29052073 185.07329123 451.02176571 185.05600822 C446.032622 185.0440962 441.04348175 185.03119592 436.05434322 185.01728058 C434.8118282 185.01383587 434.8118282 185.01383587 433.54421186 185.01032156 C420.27310171 184.97171143 407.00311678 184.87260864 393.7325424 184.75055515 C380.01817147 184.62593799 366.30473821 184.57335089 352.58980179 184.58140904 C344.9262646 184.58392857 337.26563881 184.55679627 329.60283566 184.44559288 C289.23643208 183.88036955 255.3712548 188.81767237 217.17676258 202.34450722 C209.04637628 205.21108373 200.80045342 207.66074431 192.52563059 210.07107246 C188.79660588 211.16330041 185.07855044 212.29173975 181.359519 213.41742706 C179.9291428 213.84888714 178.49872837 214.28022049 177.06825924 214.71137238 C176.36410885 214.92370514 175.65995846 215.1360379 174.93447018 215.35480499 C171.99738816 216.24032972 169.06016004 217.12536931 166.12293339 218.01041412 C163.16159266 218.90278126 160.20033429 219.7954215 157.23909283 220.68811798 C155.79591413 221.12313927 154.35271039 221.55807749 152.90948009 221.99292755 C144.81468164 224.4320658 136.72307791 226.88126182 128.63637447 229.34711456 C126.35955948 230.04047058 124.08270388 230.73369315 121.80584431 231.42690277 C119.66057816 232.08095216 117.51612075 232.73760534 115.37168026 233.39435577 C114.06582504 233.79214402 112.75993405 234.18981488 111.45400143 234.58734894 C110.3192387 234.9342276 109.18447598 235.28110626 108.0153265 235.6384964 C99.21558636 238.1383048 91.44190595 238.24176611 82.97084713 234.50336456 C77.19026514 230.75540574 72.960938 226.14356875 70.97084713 219.50336456 C70.2743466 215.93218278 69.73457077 212.33514354 69.19106197 208.7379837 C68.24945452 202.97812376 66.52003955 199.20364642 62.97084713 194.50336456 C62.97084713 193.84336456 62.97084713 193.18336456 62.97084713 192.50336456 C62.39145382 192.21654312 61.81206051 191.92972168 61.21510983 191.63420868 C59.82442567 190.93346763 58.44476696 190.20973238 57.08498287 189.45076752 C50.29978837 185.95839101 44.01947932 185.94886797 36.50209713 185.99945831 C35.22661007 185.99003708 33.95112301 185.98061584 32.63698483 185.97090912 C29.26683765 185.94718386 25.89747975 185.93860629 22.52730465 185.94001007 C17.78628846 185.94198004 13.04562749 185.93228709 8.30470943 185.90010834 C5.78824359 185.88340833 3.27163787 185.88037395 0.75514889 185.89311981 C-9.26646859 185.83321273 -16.87095769 184.45962577 -24.30259037 177.47211456 C-29.39195916 171.66885241 -31.14488083 165.2807573 -31.17632389 157.69876862 C-31.18347919 156.51291168 -31.1906345 155.32705475 -31.19800663 154.10526276 C-31.20069553 152.80754944 -31.20338444 151.50983612 -31.20615482 150.17279816 C-31.21242288 148.78943462 -31.21906999 147.40607275 -31.22606754 146.02271271 C-31.24707416 141.48242101 -31.25746851 136.94212911 -31.26743412 132.40180206 C-31.27148331 130.83566648 -31.27560028 129.26953107 -31.2797842 127.70339584 C-31.29883045 120.34255084 -31.31306121 112.98171582 -31.32139617 105.62085092 C-31.33115905 97.14013708 -31.35745594 88.6596849 -31.39789706 80.1790632 C-31.42812217 73.61412256 -31.44287119 67.04925664 -31.44617718 60.4842478 C-31.44852088 56.56812201 -31.45739165 52.65227592 -31.48263836 48.73622513 C-31.50603578 45.0474389 -31.51010604 41.35911422 -31.49987698 37.67027283 C-31.4991509 35.68502072 -31.51816084 33.69979144 -31.53794193 31.71463776 C-31.48495521 22.53652331 -30.19939545 14.64376372 -23.90415287 7.62836456 C-16.96173395 1.51682058 -9.01077032 -0.09615047 0 0 Z " fill="#F9F9F4" transform="translate(152.02915287017822,121.49663543701172)"/>
<path d="M0 0 C7.13832735 6.7417536 8.5108993 13.98225734 9.79760742 23.30444336 C10.88955709 30.60844169 13.07014397 35.82466463 19.03125 40.46484375 C23.38870768 43.32442535 27.09841764 44.98271512 32.37047672 44.98966026 C33.27596573 44.99328461 34.18145474 44.99690896 35.1143828 45.00064313 C36.11046964 44.99957488 37.10655647 44.99850663 38.13282776 44.99740601 C39.19005899 45.00022729 40.24729022 45.00304857 41.33655876 45.00595534 C44.89698725 45.01432163 48.45738473 45.01564134 52.01782227 45.01708984 C54.56358427 45.02175665 57.10934544 45.02689999 59.65510559 45.03248596 C65.14714583 45.04377961 70.63917957 45.05225849 76.13122749 45.05860519 C84.81691129 45.06893223 93.50255683 45.08949724 102.18821716 45.11172485 C105.16033637 45.11920489 108.13245574 45.12661862 111.10457516 45.13401222 C111.84739728 45.13586279 112.59021941 45.13771335 113.35555129 45.13962 C121.81360924 45.1605521 130.27167143 45.17937663 138.72973633 45.19726562 C139.50297656 45.19890381 140.27621679 45.20054199 141.07288855 45.20222981 C153.59159765 45.2284908 166.11030969 45.24714703 178.62903465 45.26385753 C191.48649359 45.28129705 204.34389486 45.310164 217.20130771 45.3487469 C225.1283784 45.37211011 233.05535504 45.38613816 240.98246043 45.38807453 C247.06442885 45.39043929 253.14625077 45.40834474 259.22817802 45.43194389 C261.71859671 45.43913227 264.20903615 45.44124011 266.69946289 45.43784142 C270.10510585 45.43393682 273.51020505 45.44843421 276.91578674 45.46737671 C278.38649442 45.45908217 278.38649442 45.45908217 279.88691336 45.45062006 C289.43117943 45.54195475 297.28264403 47.33570707 304.27734375 54.01953125 C309.0309898 59.1903564 311.08566728 63.64348778 311.12265015 70.73353577 C311.13125061 71.96008881 311.13985107 73.18664185 311.14871216 74.45036316 C311.15314734 75.81204181 311.1574457 77.17372092 311.16162109 78.53540039 C311.16952397 79.96787718 311.17779304 81.40035199 311.18640137 82.83282471 C311.21260887 87.54087425 311.22793178 92.24893261 311.2421875 96.95703125 C311.24754847 98.57981306 311.25292598 100.20259481 311.25831985 101.82537651 C311.27995032 108.5792123 311.29868424 115.33304572 311.30994225 122.08690739 C311.32616212 131.75296727 311.35928994 141.41862394 311.41634309 151.08453184 C311.45512031 157.88724007 311.47458435 164.68984084 311.47986281 171.49265665 C311.48350681 175.55194438 311.49542521 179.61080194 311.52796555 183.66996956 C311.55818233 187.49423282 311.56431026 191.31780875 311.55258179 195.14216614 C311.55236215 196.53930673 311.56057536 197.93648046 311.57823563 199.33350945 C311.69047732 208.73056131 310.80083693 216.61332106 304.21321678 223.76530552 C297.65406533 229.96845602 291.00109247 231.30582917 282.27750587 231.23969173 C281.31481745 231.24435165 280.35212903 231.24901157 279.36026824 231.2538127 C276.1273798 231.26578427 272.89490994 231.2563587 269.66201782 231.24705505 C267.32362626 231.25122701 264.98523671 231.25670376 262.64685094 231.26337487 C256.88980281 231.2763465 251.13287507 231.27532852 245.37581923 231.26841248 C238.47927462 231.26089919 231.58278254 231.27076787 224.68624552 231.28111567 C211.17333843 231.30079018 197.66046969 231.30312848 184.1475517 231.29792047 C172.32098195 231.29336462 160.49442739 231.29396083 148.66785812 231.29976082 C147.08191581 231.30051768 145.4959735 231.30127366 143.91003119 231.30202876 C141.52020148 231.30317395 139.13037177 231.30432383 136.74054207 231.30548801 C114.51945356 231.31619442 92.29837011 231.32091683 70.07728004 231.31301785 C68.82059101 231.31257209 68.82059101 231.31257209 67.53851432 231.31211732 C60.7349024 231.30966834 53.93129053 231.30705678 47.12767868 231.30443319 C20.58900134 231.29433081 -5.94961273 231.3026854 -32.48828125 231.32592773 C-62.30134969 231.35199548 -92.11438005 231.36484954 -121.92746031 231.35773998 C-125.1058824 231.35702392 -128.28430449 231.35634953 -131.46272659 231.35569954 C-132.24534061 231.35552973 -133.02795462 231.35535992 -133.83428421 231.35518497 C-145.65205325 231.35288124 -157.46978695 231.36086247 -169.28754807 231.37399101 C-182.72659414 231.388894 -196.16555732 231.38975654 -209.60460161 231.3719201 C-216.46336864 231.36319199 -223.3219913 231.36079632 -230.18074989 231.37657166 C-236.4576801 231.39035921 -242.73431539 231.38573187 -249.01122828 231.36633242 C-251.283707 231.36255386 -253.55620901 231.36554741 -255.82866709 231.37594407 C-258.91557583 231.3890642 -262.00145924 231.37757422 -265.08832359 231.35994625 C-266.41435331 231.37442202 -266.41435331 231.37442202 -267.7671715 231.38919023 C-275.21425548 231.30176325 -282.46529692 229.15367709 -287.84375 223.734375 C-295.12176727 215.48670546 -295.61317562 206.43316695 -295.53295898 195.83178711 C-295.53675003 194.4459122 -295.54225651 193.06004111 -295.54933167 191.67417908 C-295.56320013 187.93858517 -295.55217844 184.2034563 -295.53562045 180.46788859 C-295.52168536 176.54300698 -295.5282395 172.61815005 -295.53175354 168.69325256 C-295.5344487 162.10556619 -295.52103898 155.51806275 -295.49780273 148.93041992 C-295.47118626 141.33223273 -295.46945199 133.73435099 -295.4811911 126.13613313 C-295.49199808 118.80195929 -295.48575967 111.4678951 -295.47163582 104.13372993 C-295.4659024 101.02349799 -295.46593772 97.91334698 -295.47070122 94.80311394 C-295.47549997 91.13641631 -295.46525062 87.47005 -295.44374657 83.8034153 C-295.43559681 81.8288188 -295.44199817 79.85417873 -295.44894409 77.87957764 C-295.37111465 68.50724263 -294.43510431 60.50191204 -287.83984375 53.4296875 C-280.95236048 47.44962643 -274.21506494 45.61572173 -265.23413086 46.01904297 C-263.84122787 46.07402953 -262.44827501 46.12776287 -261.05528259 46.18043518 C-260.3157881 46.2093088 -259.5762936 46.23818241 -258.81439018 46.26793098 C-212.27140282 47.94694861 -173.06822606 42.15432528 -129.24041748 26.75814819 C-117.79321458 22.74131062 -106.26945373 19.0812808 -94.64453125 15.61328125 C-93.80687603 15.36333971 -92.96922081 15.11339817 -92.1061821 14.85588264 C-87.95982943 13.62057617 -83.81190696 12.39065378 -79.66308594 11.16366577 C-72.79577536 9.13069869 -65.94116853 7.05573905 -59.08533859 4.98446846 C-54.51937788 3.60643092 -49.95101097 2.23640115 -45.38287354 0.86560059 C-43.28224127 0.23494803 -41.18189441 -0.39665682 -39.08197021 -1.02966309 C-36.67418215 -1.75510314 -34.26514472 -2.47617369 -31.85546875 -3.1953125 C-30.64334717 -3.55866699 -29.43122559 -3.92202148 -28.18237305 -4.29638672 C-18.19202172 -6.97296802 -8.47173883 -6.44588824 0 0 Z " fill="#FAFAF4" transform="translate(416.03125,565.140625)"/>
<path d="M0 0 C1.2275409 -0.00529263 1.2275409 -0.00529263 2.4798806 -0.01069218 C3.3804093 -0.0094944 4.28093799 -0.00829663 5.20875543 -0.00706255 C6.16821725 -0.00971438 7.12767908 -0.01236621 8.1162155 -0.01509839 C11.36209583 -0.02281627 14.6079385 -0.02335152 17.85382742 -0.02394831 C20.19217701 -0.0279613 22.5305259 -0.03239924 24.86887395 -0.03722787 C30.64134464 -0.04795808 36.41380693 -0.05395368 42.18628591 -0.05793675 C49.09814614 -0.06294318 56.00999455 -0.07367031 62.9218478 -0.08441848 C79.63021887 -0.11005787 96.33859453 -0.12508602 113.04697963 -0.13792895 C118.5807107 -0.14218291 124.11444143 -0.14674861 129.64817208 -0.15151227 C159.06516579 -0.17677217 188.48216006 -0.19882246 217.89916223 -0.21124041 C224.71599543 -0.21416179 231.53282861 -0.2171293 238.34966177 -0.22014582 C239.19657617 -0.22051673 240.04349057 -0.22088764 240.91606904 -0.22126979 C268.37518125 -0.23342536 295.83422937 -0.26436902 323.29331148 -0.30606735 C351.51791107 -0.34885004 379.74247681 -0.37548081 407.96710971 -0.38071512 C411.95325379 -0.38145558 415.9393978 -0.38236626 419.92554182 -0.3833729 C420.71005756 -0.38356352 421.4945733 -0.38375413 422.30286225 -0.38395052 C434.93068242 -0.38746472 447.55842236 -0.4077655 460.18621306 -0.43416954 C472.87911387 -0.46030954 485.57192192 -0.46804357 498.2648458 -0.45706825 C505.14197574 -0.45161637 512.01887276 -0.45417048 518.89596456 -0.47953379 C525.19103416 -0.50195804 531.48566408 -0.50133895 537.78074103 -0.48232992 C540.05874753 -0.47952038 542.33678342 -0.48518108 544.61474252 -0.50014286 C547.71173452 -0.5192412 550.80715741 -0.50746404 553.90411371 -0.48808062 C555.23032451 -0.50735445 555.23032451 -0.50735445 556.58332744 -0.52701765 C564.2378789 -0.42177426 570.58409274 2.24220999 576.43437856 7.19245183 C577.20781606 8.15151433 577.20781606 8.15151433 577.99687856 9.12995183 C578.80125356 10.08901433 578.80125356 10.08901433 579.62187856 11.06745183 C582.51316873 15.40438708 583.24819352 19.12208839 583.2643041 24.29604375 C583.27283407 25.5366506 583.28136404 26.77725744 583.29015249 28.05545843 C583.28945353 29.42249347 583.2885305 30.78952841 583.28740591 32.15656316 C583.29339314 33.60243359 583.30019914 35.04830082 583.30776113 36.49416387 C583.32540962 40.41578462 583.33011605 44.33731805 583.33139271 48.25897467 C583.33281564 50.71124794 583.33708795 53.16349911 583.34238714 55.61576688 C583.36088436 64.17723151 583.36905823 72.73863391 583.36748403 81.30011785 C583.36628306 89.27030658 583.38737746 97.24022432 583.41897136 105.21034449 C583.44515803 112.06148197 583.45585031 118.91253107 583.45457321 125.76371819 C583.45406424 129.85188945 583.45971159 133.93981987 583.48092932 138.02794111 C583.50035193 141.87515949 583.50040909 145.72190832 583.48589605 149.56914365 C583.48381173 150.97678222 583.48848638 152.38445048 583.50061697 153.79203832 C583.57491363 163.01447168 583.13270105 169.46882811 576.81328481 176.59088933 C576.06949575 177.22252996 575.32570669 177.85417058 574.55937856 178.50495183 C573.81816763 179.15206121 573.07695669 179.79917058 572.31328481 180.46588933 C565.46708984 185.3840665 557.68463164 185.27760593 549.58485597 185.25858629 C548.64020513 185.26033932 547.69555429 185.26209236 546.72227767 185.26389852 C543.5448504 185.2685645 540.36746877 185.26609147 537.19003958 185.2636646 C534.89376129 185.26553227 532.59748333 185.2678328 530.30120587 185.27052993 C523.98145727 185.27665976 517.66172188 185.27651294 511.34197098 185.27533555 C505.22928339 185.27466764 499.116599 185.27964044 493.00391332 185.28394844 C478.95520643 185.29362274 464.90650318 185.29643271 450.85779335 185.2970055 C440.00942294 185.29746491 429.16105395 185.2995226 418.312684 185.30270612 C415.19079753 185.30360366 412.06891106 185.30449347 408.94702458 185.305381 C408.1709306 185.30560205 407.39483661 185.3058231 406.59522462 185.30605084 C384.76316798 185.31220561 362.93111183 185.31615135 341.09905428 185.31570756 C340.27582417 185.31569199 339.45259407 185.31567641 338.6044176 185.31566036 C334.43187628 185.31557725 330.25933495 185.31547821 326.08679362 185.31537565 C324.84375476 185.31534573 324.84375476 185.31534573 323.57560399 185.31531521 C321.89978555 185.31527477 320.22396711 185.31523297 318.54814866 185.31518982 C292.47286621 185.31457701 266.39759675 185.32208441 240.32231802 185.33576238 C211.03188027 185.35112053 181.74145106 185.35972877 152.45100904 185.35879916 C149.3281795 185.35872453 146.20534996 185.35867582 143.08252043 185.35864484 C142.31359142 185.35863319 141.54466241 185.35862153 140.75243252 185.35860953 C128.37473654 185.35857875 115.99705183 185.36496644 103.6193592 185.37357711 C91.18114708 185.38205096 78.74295148 185.38304563 66.30473807 185.37646779 C59.56550406 185.37309601 52.82631343 185.37317079 46.0870828 185.38182104 C39.91936658 185.38965641 33.75172393 185.38828499 27.58400957 185.3795369 C25.35120339 185.37799537 23.1183918 185.37984253 20.88559201 185.38539698 C17.8524469 185.39244345 14.81956084 185.38717395 11.78642458 185.3788408 C10.91816237 185.38380898 10.04990017 185.38877716 9.15532699 185.39389589 C-0.4102733 185.33827936 -8.78006698 183.77028332 -16.00312144 177.12995183 C-20.83755395 170.70431197 -23.11706898 165.33666429 -23.15029246 157.32535589 C-23.15744776 156.13949895 -23.16460306 154.95364202 -23.1719752 153.73185003 C-23.1746641 152.43413671 -23.177353 151.13642339 -23.18012339 149.79938543 C-23.18639145 148.41602189 -23.19303855 147.03266002 -23.20003611 145.64929998 C-23.22104273 141.10900828 -23.23143708 136.56871638 -23.24140269 132.02838933 C-23.24545187 130.46225375 -23.24956884 128.89611834 -23.25375277 127.32998312 C-23.27279901 119.96913811 -23.28702978 112.60830309 -23.29536474 105.24743819 C-23.30512761 96.76672435 -23.33142451 88.28627217 -23.37186563 79.80565047 C-23.40209074 73.24070983 -23.41683976 66.67584391 -23.42014575 60.11083508 C-23.42248944 56.19470928 -23.43136021 52.27886319 -23.45660692 48.3628124 C-23.48000435 44.67402617 -23.4840746 40.98570149 -23.47384554 37.2968601 C-23.47311947 35.31160799 -23.49212941 33.32637871 -23.5119105 31.34122503 C-23.46102329 22.52677768 -21.92062122 15.81879077 -17.25312144 8.31745183 C-12.44473609 3.64263275 -6.84408753 0.00933182 0 0 Z " fill="#FAFAF4" transform="translate(144.00312143564224,366.87004816532135)"/>
</svg>
