<?xml version="1.0" encoding="UTF-8"?>
<svg version="1.1" xmlns="http://www.w3.org/2000/svg" width="341" height="228">
<path d="M0 0 C14.19 0 28.38 0 43 0 C43 1.32 43 2.64 43 4 C41.68 4.33 40.36 4.66 39 5 C38.13360817 14.7042448 40.28707478 21.3969865 44.5 30.0625 C45.60964818 32.44327684 46.71771481 34.82479145 47.82421875 37.20703125 C48.36868652 38.36283691 48.9131543 39.51864258 49.47412109 40.70947266 C51.54431927 45.17381362 53.44301166 49.69884134 55.3125 54.25 C57.60380515 59.77333753 59.99428468 65.22481443 62.5625 70.625 C65.46055476 76.73279962 68.08803233 82.91732355 70.60375977 89.19189453 C71.86323125 92.3182102 73.15753556 95.30603812 74.703125 98.30859375 C76 101 76 101 76 104 C76.66 104 77.32 104 78 104 C78.09023437 103.35804688 78.18046875 102.71609375 78.2734375 102.0546875 C79.26885553 97.86965039 80.93175059 94.0710519 82.625 90.125 C82.98255371 89.28074463 83.34010742 88.43648926 83.70849609 87.56665039 C85.88934936 82.45789792 88.20245114 77.43498938 90.625 72.4375 C93.24264673 66.95290685 95.23510852 61.4791183 97.0625 55.6875 C101.71261022 41.09059719 109.59925053 29.81710386 123 22 C138.67077203 13.92323953 157.81670521 10.70656795 175 16 C181.37646193 18.29877545 187.68473261 20.71825682 193 25 C193 25.66 193 26.32 193 27 C194.98 27.99 194.98 27.99 197 29 C196.67 30.65 196.34 32.3 196 34 C193.79296875 34.69921875 193.79296875 34.69921875 191 35 C188.67578125 33.70703125 188.67578125 33.70703125 186.3125 31.8125 C175.65595548 23.85582518 164.14218961 21.81898819 151 23 C142.25465676 25.07714035 135.34841859 28.67115283 130 36 C128.10901225 39.24897649 126.47352238 42.5428898 125 46 C125.65226562 46.03738281 126.30453125 46.07476562 126.9765625 46.11328125 C132.31622957 46.51493762 136.3204092 47.16761609 141 50 C141.06316406 49.25621094 141.12632812 48.51242188 141.19140625 47.74609375 C142.49765817 43.30988554 145.99156401 41.72533572 149.65234375 39.16015625 C152.41507242 36.61807812 153.1040725 34.59906875 154 31 C155.98 31.99 155.98 31.99 158 33 C158 36.3 158 39.6 158 43 C161.46971377 38.97652412 161.46971377 38.97652412 163 34 C166 35 166 35 167 37 C167.37410381 41.95687553 167.12432647 45.03450872 164 49 C163.34 49 162.68 49 162 49 C163.65238082 51.95689199 165.3805876 54.4548486 167.5625 57.0625 C170 60 170 60 170.9296875 61.9765625 C172.17348955 64.32798388 173.53633146 65.59741996 175.5625 67.3125 C176.26632813 67.91320312 176.97015625 68.51390625 177.6953125 69.1328125 C180.78865222 71.63894197 183.98227152 74.00098073 187.21484375 76.32421875 C189.26278231 78.24668186 189.70492435 79.23701892 190 82 C189.3634563 86.45580591 188.6040861 88.45083082 185.25 91.5 C180.52027766 93.845154 175.68340563 92.78000425 170.6015625 92.23046875 C165.51720982 91.90511429 160.91880564 92.78535616 156 94 C155.814375 94.89525391 155.814375 94.89525391 155.625 95.80859375 C154.72560733 98.96208928 152.83515204 101.30462044 151 104 C149.95023036 107.14930893 149.89868405 109.38814456 149.9375 112.6875 C149.94652344 113.68136719 149.95554688 114.67523438 149.96484375 115.69921875 C149.97644531 116.45847656 149.98804688 117.21773438 150 118 C165.39045997 118.49118489 179.19652654 116.84812662 190.9921875 106.29296875 C193 105 193 105 195.1328125 105.17578125 C197 106 197 106 199 108 C198.78531482 110.4863539 198.30353966 111.68232287 196.57421875 113.4921875 C183.8122708 122.84566488 169.034073 128.46957134 153 127 C151.87207031 126.9071875 150.74414062 126.814375 149.58203125 126.71875 C134.41801702 125.11114808 119.36880509 119.69143707 109.125 107.83984375 C107 105 107 105 107 103 C106.34 103 105.68 103 105 103 C103.7109375 101.25 103.7109375 101.25 102.375 99 C101.92898437 98.2575 101.48296875 97.515 101.0234375 96.75 C100.51683594 95.88375 100.51683594 95.88375 100 95 C99.60731934 95.68513672 99.21463867 96.37027344 98.81005859 97.07617188 C97.00377252 100.22058524 95.18945729 103.36029523 93.375 106.5 C92.75753906 107.57765625 92.14007813 108.6553125 91.50390625 109.765625 C80.91738197 128.04130901 80.91738197 128.04130901 75 131 C72.125 131.4375 72.125 131.4375 69 131 C65.89331108 126.9710128 63.85664561 122.72783149 61.875 118.0625 C61.26955846 116.65233207 60.66408789 115.2421766 60.05859375 113.83203125 C59.7322998 113.06584473 59.40600586 112.2996582 59.06982422 111.51025391 C57.041163 106.75016842 54.99197904 101.99899109 52.9375 97.25 C52.50574463 96.25154053 52.07398926 95.25308105 51.62915039 94.22436523 C49.07519949 88.35657396 46.36329529 82.62204258 43.421875 76.9375 C41.62815397 73.23179062 40.09802858 69.44340107 38.5625 65.625 C36.00142341 59.27009762 33.15807346 53.16802084 30.015625 47.07421875 C28.36366845 43.80677081 26.85302114 40.48717534 25.359375 37.14453125 C24.88790039 36.09273682 24.41642578 35.04094238 23.93066406 33.95727539 C23.00211769 31.8756519 22.08169712 29.79037753 21.17089844 27.70092773 C17.25416323 18.94591494 12.86479793 9.53089672 4 5 C1.77397385 4.23060319 1.77397385 4.23060319 0 4 C0 2.68 0 1.36 0 0 Z M123 50 C120.5439162 56.65957899 120.73815998 63.0900861 120.8125 70.125 C120.81314453 71.29160156 120.81378906 72.45820312 120.81445312 73.66015625 C120.83985626 78.58836372 120.89193067 83.17976025 122 88 C122.33 88 122.66 88 123 88 C123.495 79.09 123.495 79.09 124 70 C127.63 68.35 131.26 66.7 135 65 C135 64.34 135 63.68 135 63 C133.906875 62.62875 132.81375 62.2575 131.6875 61.875 C128.60089971 60.56195028 128.05192656 60.08415684 126.1875 57.0625 C125.795625 56.051875 125.40375 55.04125 125 54 C124.608125 53.21625 124.21625 52.4325 123.8125 51.625 C123.544375 51.08875 123.27625 50.5525 123 50 Z M160 63 C160.33 63.66 160.66 64.32 161 65 C161.99 64.67 162.98 64.34 164 64 C162.68 63.67 161.36 63.34 160 63 Z M144 86 C145 88 145 88 145 88 Z M123 89 C124 91 124 91 124 91 Z " fill="#FAFAF5" transform="translate(59,51)"/>
<path d="M0 0 C0.74379781 22.20374199 0.74379781 22.20374199 -6 31 C-6.66 31 -7.32 31 -8 31 C-8 31.66 -8 32.32 -8 33 C-13.12282898 37.20828367 -18.25714766 39.48650278 -24.4375 41.75 C-39.57224555 47.5757868 -55.84168378 54.373548 -63 70 C-63.37511719 70.81597656 -63.75023437 71.63195312 -64.13671875 72.47265625 C-66.45898142 77.79847631 -68.41477872 83.18173855 -70.18359375 88.71044922 C-74.51581691 102.22619984 -79.06805769 113.49000783 -92.25 120.375 C-94.795307 121.58454671 -97.25132873 122.37972463 -100 123 C-100 121.68 -100 120.36 -100 119 C-98.4609375 117.83203125 -98.4609375 117.83203125 -96.375 116.8125 C-87.12017768 111.3934506 -83.69917642 100.90497452 -81 91 C-80.13678285 87.30239053 -79.35174022 83.588998 -78.5625 79.875 C-75.98100393 67.85242966 -72.23289374 55.81228225 -61.71484375 48.38671875 C-57.09089544 45.50657784 -52.32658175 43.13588976 -47.31640625 41.01171875 C-43.12728094 39.18206706 -39.07211762 37.07431461 -35 35 C-35.26490234 33.89591797 -35.26490234 33.89591797 -35.53515625 32.76953125 C-36.3776165 27.75016725 -35.29953529 23.18807297 -32.703125 18.81640625 C-29.816692 14.88103755 -26.64781152 11.24249913 -23 8 C-22.34 8 -21.68 8 -21 8 C-21 7.34 -21 6.68 -21 6 C-18.8967433 5.01888025 -16.79236311 4.04016866 -14.6875 3.0625 C-13.51574219 2.51722656 -12.34398437 1.97195312 -11.13671875 1.41015625 C-6.76591449 -0.55480058 -4.63043378 -1.12632173 0 0 Z M-17 17 C-17.73605469 17.80824219 -18.47210938 18.61648437 -19.23046875 19.44921875 C-20.21608409 20.52870221 -21.20176465 21.60812612 -22.1875 22.6875 C-22.67025391 23.21794922 -23.15300781 23.74839844 -23.65039062 24.29492188 C-26.687386 27.61727252 -29.7936902 30.84058321 -33 34 C-26.24998778 32.35365556 -21.52085363 28.37237002 -17.5 22.8125 C-17.005 21.884375 -16.51 20.95625 -16 20 C-16.33 19.01 -16.66 18.02 -17 17 Z " fill="#FAFAF5" transform="translate(225,6)"/>
<path d="M0 0 C6 0 6 0 8.5546875 2.40625 C9.32039063 3.4271875 10.08609375 4.448125 10.875 5.5 C11.65617187 6.5209375 12.43734375 7.541875 13.2421875 8.59375 C13.82226562 9.3878125 14.40234375 10.181875 15 11 C15.33 7.37 15.66 3.74 16 0 C18.33294775 -0.04241723 20.66702567 -0.04092937 23 0 C24.68516954 1.68516954 24.13008019 3.78767788 24.1328125 6.09375 C24.13474609 7.63869141 24.13474609 7.63869141 24.13671875 9.21484375 C24.13285156 10.29894531 24.12898438 11.38304687 24.125 12.5 C24.13080078 14.12615234 24.13080078 14.12615234 24.13671875 15.78515625 C24.13542969 16.81511719 24.13414062 17.84507812 24.1328125 18.90625 C24.13168457 19.85822266 24.13055664 20.81019531 24.12939453 21.79101562 C24 24 24 24 23 25 C20.2421875 25.40625 20.2421875 25.40625 17 25 C14.4453125 22.59375 14.4453125 22.59375 12.125 19.5 C11.34382813 18.4790625 10.56265625 17.458125 9.7578125 16.40625 C9.17773438 15.6121875 8.59765625 14.818125 8 14 C7.67 17.63 7.34 21.26 7 25 C4.69 25 2.38 25 0 25 C0 16.75 0 8.5 0 0 Z " fill="#FAFAF4" transform="translate(316,203)"/>
<path d="M0 0 C3.22568148 1.85138451 5.46241221 4.13518485 7.4375 7.3125 C8.50152842 12.39619132 7.96481008 16.4696116 5.1875 20.875 C1.73086848 24.23287062 -1.0690535 25.30014102 -5.875 25.375 C-10.66907708 25.26203206 -13.39806967 24.33837445 -17 21 C-19.40943467 17.58015724 -20.24719111 15.04864944 -19.9375 10.9375 C-19.23009256 7.0355895 -17.96578537 4.73164442 -15 2 C-9.84853109 -0.97200129 -5.62648465 -1.87169063 0 0 Z M-10 6 C-12.46324069 9.69486103 -12.38991688 11.63293092 -12 16 C-11.01951062 18.06402685 -11.01951062 18.06402685 -9 19 C-6.04279372 19.66680368 -6.04279372 19.66680368 -3 19 C-0.4285061 16.9315113 -0.4285061 16.9315113 1 14 C0.93182826 11.13678706 0.37360729 9.60192285 -1.125 7.1875 C-4.10134454 5.30248179 -6.58002325 5.62691163 -10 6 Z " fill="#FAFAF5" transform="translate(175,203)"/>
<path d="M0 0 C6.6 0 13.2 0 20 0 C20 1.98 20 3.96 20 6 C16.04 6 12.08 6 8 6 C8 6.99 8 7.98 8 9 C8.71027344 8.98839844 9.42054688 8.97679687 10.15234375 8.96484375 C11.07144531 8.95582031 11.99054688 8.94679687 12.9375 8.9375 C13.85402344 8.92589844 14.77054687 8.91429687 15.71484375 8.90234375 C18 9 18 9 19 10 C19 11.65 19 13.3 19 15 C15.37 15 11.74 15 8 15 C8 16.32 8 17.64 8 19 C8.85464844 18.98839844 9.70929688 18.97679687 10.58984375 18.96484375 C11.69457031 18.95582031 12.79929687 18.94679687 13.9375 18.9375 C15.03964844 18.92589844 16.14179688 18.91429687 17.27734375 18.90234375 C20 19 20 19 21 20 C21.04063832 21.66617115 21.042721 23.33388095 21 25 C17.68751813 25.02888146 14.37506833 25.04675799 11.0625 25.0625 C10.11697266 25.07087891 9.17144531 25.07925781 8.19726562 25.08789062 C6.84858398 25.09272461 6.84858398 25.09272461 5.47265625 25.09765625 C4.22367554 25.10551147 4.22367554 25.10551147 2.94946289 25.11352539 C1 25 1 25 0 24 C-0.08726223 22.21928754 -0.10699041 20.4351686 -0.09765625 18.65234375 C-0.09443359 17.57275391 -0.09121094 16.49316406 -0.08789062 15.38085938 C-0.07951172 14.24455078 -0.07113281 13.10824219 -0.0625 11.9375 C-0.05798828 10.79732422 -0.05347656 9.65714844 -0.04882812 8.48242188 C-0.0369976 5.65492582 -0.0190615 2.82745655 0 0 Z " fill="#FAFAF5" transform="translate(290,203)"/>
<path d="M0 0 C0.845625 0.495 1.69125 0.99 2.5625 1.5 C2.2325 3.15 1.9025 4.8 1.5625 6.5 C-0.375 7.0625 -0.375 7.0625 -2.4375 7.5 C-2.7675 7.17 -3.0975 6.84 -3.4375 6.5 C-6.89562169 6.16661404 -6.89562169 6.16661404 -10.4375 6.5 C-13.00437367 10.3503105 -12.27038724 12.08569763 -11.4375 16.5 C-9.1275 16.83 -6.8175 17.16 -4.4375 17.5 C-4.1075 15.19 -3.7775 12.88 -3.4375 10.5 C-1.43795254 10.45745644 0.56291636 10.45919217 2.5625 10.5 C4.14210269 12.07960269 3.73236544 13.69536816 3.75 15.875 C3.76417969 16.66648438 3.77835937 17.45796875 3.79296875 18.2734375 C3.5625 20.5 3.5625 20.5 1.5625 23.5 C-3.64513409 25.42626465 -10.19204592 25.37865594 -15.3125 23.375 C-18.61797053 20.45840835 -21.26088245 17.88433689 -21.6015625 13.28515625 C-21.25137295 8.27411059 -20.23977102 4.99397878 -16.4375 1.5 C-10.83565448 -2.11007822 -6.14621094 -2.68198296 0 0 Z " fill="#FAFAF5" transform="translate(281.4375,203.5)"/>
<path d="M0 0 C6.43251287 -0.48547267 6.43251287 -0.48547267 8.67578125 1.43359375 C10.6477981 5.25546711 12.4580829 9.1251833 14.1875 13.0625 C14.55552734 13.87783203 14.92355469 14.69316406 15.30273438 15.53320312 C15.65013672 16.31759766 15.99753906 17.10199219 16.35546875 17.91015625 C16.82956177 18.97955444 16.82956177 18.97955444 17.31323242 20.07055664 C18 22 18 22 18 25 C15.36 25 12.72 25 10 25 C9.505 22.525 9.505 22.525 9 20 C7.3739713 20.06000106 5.74898451 20.1487885 4.125 20.25 C3.22007812 20.29640625 2.31515625 20.3428125 1.3828125 20.390625 C-1.17110544 20.75611148 -1.17110544 20.75611148 -2.3203125 23.046875 C-2.54460937 23.69140625 -2.76890625 24.3359375 -3 25 C-5.31 25 -7.62 25 -10 25 C-9.4671171 19.08984421 -7.015992 14.36885509 -4.4375 9.125 C-4.01275391 8.24585938 -3.58800781 7.36671875 -3.15039062 6.4609375 C-2.10703441 4.30388644 -1.05678116 2.15049712 0 0 Z M3 9 C2.67 10.65 2.34 12.3 2 14 C3.32 13.67 4.64 13.34 6 13 C5.01 11.68 4.02 10.36 3 9 Z " fill="#FAFAF5" transform="translate(241,203)"/>
<path d="M0 0 C1.134375 0.020625 2.26875 0.04125 3.4375 0.0625 C12.10416667 17.0625 12.10416667 17.0625 14.4375 24.0625 C13.4375 25.0625 13.4375 25.0625 10.5 25.1875 C7.4375 25.0625 7.4375 25.0625 5.4375 24.0625 C5.1075 23.0725 4.7775 22.0825 4.4375 21.0625 C1.1375 20.7325 -2.1625 20.4025 -5.5625 20.0625 C-5.8925 21.3825 -6.2225 22.7025 -6.5625 24.0625 C-7.5625 25.0625 -7.5625 25.0625 -10.625 25.125 C-11.594375 25.104375 -12.56375 25.08375 -13.5625 25.0625 C-12.9801232 19.42982443 -10.89455594 14.83404503 -8.5625 9.75 C-8.00949219 8.51540039 -8.00949219 8.51540039 -7.4453125 7.25585938 C-4.20060834 0.07369488 -4.20060834 0.07369488 0 0 Z M-0.5625 9.0625 C-1.2225 10.7125 -1.8825 12.3625 -2.5625 14.0625 C-1.2425 14.0625 0.0775 14.0625 1.4375 14.0625 C1.1075 12.4125 0.7775 10.7625 0.4375 9.0625 C0.1075 9.0625 -0.2225 9.0625 -0.5625 9.0625 Z " fill="#FAFAF5" transform="translate(77.5625,202.9375)"/>
<path d="M0 0 C0.495 0.309375 0.99 0.61875 1.5 0.9375 C1.17 2.5875 0.84 4.2375 0.5 5.9375 C-1.4375 6.5 -1.4375 6.5 -3.5 6.9375 C-3.83 6.6075 -4.16 6.2775 -4.5 5.9375 C-7.95821402 5.68746036 -7.95821402 5.68746036 -11.5 5.9375 C-13.80746414 7.81523264 -13.80746414 7.81523264 -13.75 10.875 C-13.73517754 14.11032787 -13.73517754 14.11032787 -11.5 16.9375 C-8.37823026 17.21499064 -5.8046998 17.00674995 -2.75 16.3125 C-2.0075 16.18875 -1.265 16.065 -0.5 15.9375 C0.16 16.5975 0.82 17.2575 1.5 17.9375 C1.375 19.9375 1.375 19.9375 0.5 21.9375 C-3.90982881 24.71332974 -8.45652436 24.57490608 -13.5 23.9375 C-17.29727475 22.14242467 -19.03142782 20.60257018 -21.4375 17.1875 C-22.78356943 13.07011115 -22.73848537 10.07147877 -21.5 5.9375 C-16.70282605 -2.36530107 -8.32329492 -3.53740034 0 0 Z " fill="#FAFAF5" transform="translate(150.5,204.0625)"/>
<path d="M0 0 C2.31 0 4.62 0 7 0 C7.83764268 1.95649397 8.66999059 3.91525556 9.5 5.875 C9.9640625 6.96554688 10.428125 8.05609375 10.90625 9.1796875 C12 12 12 12 12 14 C12.66 14 13.32 14 14 14 C14.18175781 13.40832031 14.36351562 12.81664062 14.55078125 12.20703125 C17.53283838 2.83266705 17.53283838 2.83266705 20 0 C23.1875 -0.3125 23.1875 -0.3125 26 0 C25.4176232 5.63267557 23.33205594 10.22845497 21 15.3125 C20.44699219 16.54709961 20.44699219 16.54709961 19.8828125 17.80664062 C17.15472274 23.84527726 17.15472274 23.84527726 16 25 C13.125 25.375 13.125 25.375 10 25 C7.12114239 21.03101497 5.27684879 16.41162219 3.3125 11.9375 C2.99216797 11.23044922 2.67183594 10.52339844 2.34179688 9.79492188 C0.77966254 6.24764454 0 3.93302987 0 0 Z " fill="#FAFAF5" transform="translate(1,203)"/>
<path d="M0 0 C2.3001998 3.27336125 2.10650554 5.39166916 1.625 9.3125 C0.36860091 12.13939795 -0.70051768 13.78254961 -3.125 15.6875 C-6.51612087 16.62947802 -8.98491203 16.16002199 -12.375 15.3125 C-15.61768686 12.66715019 -17.18145745 10.73181207 -17.75 6.5625 C-17.22128755 1.98032548 -15.66037582 0.52320819 -12.375 -2.6875 C-7.99755452 -4.9468267 -3.73427318 -2.65329937 0 0 Z " fill="#FAFAF5" transform="translate(174.375,32.6875)"/>
<path d="M0 0 C7.59 0 15.18 0 23 0 C23 1.65 23 3.3 23 5 C20.69 5.66 18.38 6.32 16 7 C16.01160156 8.21558594 16.02320312 9.43117187 16.03515625 10.68359375 C16.04453278 12.26822764 16.05363313 13.85286318 16.0625 15.4375 C16.07087891 16.23994141 16.07925781 17.04238281 16.08789062 17.86914062 C16.0965143 19.91295221 16.0522815 21.95683902 16 24 C15.67 24.33 15.34 24.66 15 25 C12.69 25 10.38 25 8 25 C8 18.73 8 12.46 8 6 C5.69 6 3.38 6 1 6 C0.67 5.67 0.34 5.34 0 5 C0 3.35 0 1.7 0 0 Z " fill="#FAFAF5" transform="translate(41,203)"/>
<path d="M0 0 C2.31 0 4.62 0 7 0 C7 6.27 7 12.54 7 19 C10.96 19 14.92 19 19 19 C19 20.98 19 22.96 19 25 C15.85418577 25.02888514 12.70840531 25.04675923 9.5625 25.0625 C8.66466797 25.07087891 7.76683594 25.07925781 6.84179688 25.08789062 C5.56079102 25.09272461 5.56079102 25.09272461 4.25390625 25.09765625 C3.46314697 25.10289307 2.6723877 25.10812988 1.85766602 25.11352539 C0 25 0 25 -1 24 C-1.51871971 16.00561386 -0.70855849 7.95863018 0 0 Z " fill="#FAFAF5" transform="translate(211,203)"/>
<path d="M0 0 C2.31 0 4.62 0 7 0 C7 6.27 7 12.54 7 19 C10.96 19 14.92 19 19 19 C19 20.98 19 22.96 19 25 C12.73 25 6.46 25 0 25 C0 16.75 0 8.5 0 0 Z " fill="#FAFAF5" transform="translate(188,203)"/>
<path d="M0 0 C2.31 0 4.62 0 7 0 C7 6.27 7 12.54 7 19 C10.96 19 14.92 19 19 19 C19 20.98 19 22.96 19 25 C12.73 25 6.46 25 0 25 C0 16.75 0 8.5 0 0 Z " fill="#FAFAF5" transform="translate(95,203)"/>
<path d="M0 0 C2.31 0 4.62 0 7 0 C7 8.25 7 16.5 7 25 C4.69 25 2.38 25 0 25 C0 16.75 0 8.5 0 0 Z " fill="#F9F9F5" transform="translate(31,203)"/>
</svg>
