<?xml version="1.0" encoding="UTF-8"?>
<svg version="1.1" xmlns="http://www.w3.org/2000/svg" width="1920" height="550">
<path d="M0 0 C2.24357543 1.75638323 2.93433179 2.5863729 3.38818359 5.44506836 C3.39156738 6.40034424 3.39495117 7.35562012 3.3984375 8.33984375 C3.40230469 9.40396484 3.40617187 10.46808594 3.41015625 11.56445312 C3.39275391 13.23411133 3.39275391 13.23411133 3.375 14.9375 C3.38660156 16.01580078 3.39820313 17.09410156 3.41015625 18.20507812 C3.37066918 29.18906434 0.91095113 38.9410717 -3.6875 48.875 C-4.21186646 50.02524658 -4.21186646 50.02524658 -4.74682617 51.19873047 C-12.81719772 68.5986035 -23.54986436 84.44387127 -36 99 C-36.90037248 100.07368833 -37.80007896 101.14793541 -38.69921875 102.22265625 C-47.51795561 112.70144338 -56.75226976 122.86004767 -66.51171875 132.47265625 C-68.80991567 134.750617 -70.95538423 137.08864497 -73.04101562 139.56152344 C-77.20661969 144.34731856 -81.74506545 148.7066973 -86.32386208 153.09337425 C-88.96026293 155.62738187 -91.57323015 158.18542762 -94.18945312 160.74023438 C-97.48532924 163.95869284 -100.78721988 167.1695531 -104.12231445 170.34741211 C-117.67151541 183.27651426 -128.54462268 195.00360301 -135 213 C-135.48987109 214.25381189 -135.98310931 215.50631687 -136.48071289 216.75708008 C-137.6251286 219.75391079 -138.64952085 222.75726551 -139.625 225.8125 C-139.96144531 226.79541016 -140.29789063 227.77832031 -140.64453125 228.79101562 C-142.87073393 235.57411891 -144.33780039 241.98659883 -142 249 C-132.20945051 252.2635165 -122.08389067 248.50675659 -113.21484375 244.234375 C-104.42710953 239.78688327 -96.5337666 234.40118241 -88.82421875 228.26953125 C-87 227 -87 227 -85 227 C-84.73574219 226.39671875 -84.47148438 225.7934375 -84.19921875 225.171875 C-82.94244926 222.8957713 -81.84559838 221.83181567 -79.8125 220.25 C-77.1824421 218.10603126 -74.95123858 215.88888668 -72.76953125 213.29296875 C-69.03001392 208.96226858 -65.03313268 204.98875193 -60.875 201.0625 C-60.18535156 200.39154297 -59.49570313 199.72058594 -58.78515625 199.02929688 C-57.77388672 198.07313477 -57.77388672 198.07313477 -56.7421875 197.09765625 C-56.1426123 196.52539307 -55.54303711 195.95312988 -54.92529297 195.36352539 C-52.6398001 193.74490027 -50.75133336 193.37200209 -48 193 C-45.17908561 195.94356284 -44.2341103 198.81805039 -43.87402344 202.87182617 C-44.29686742 210.01510321 -49.95637781 215.5970024 -54.6875 220.4375 C-55.62722656 221.41734863 -55.62722656 221.41734863 -56.5859375 222.41699219 C-57.82813622 223.70849467 -59.074584 224.99592663 -60.32568359 226.27880859 C-61.70717415 227.69897605 -63.06919071 229.13805968 -64.42578125 230.58203125 C-81.5258361 248.45496993 -107.75566487 266.32007174 -133.1640625 267.2421875 C-153.26908568 267.60678185 -153.26908568 267.60678185 -158.75 262.375 C-163.59216669 255.78724013 -164.45001353 249.23178571 -164.25 241.3125 C-164.24484375 240.48427734 -164.2396875 239.65605469 -164.234375 238.80273438 C-164.18248413 234.7520034 -163.99760494 230.95019376 -163 227 C-166.55148152 228.9782084 -169.63639868 231.26802428 -172.75537109 233.86987305 C-191.66003565 249.61524686 -214.33167283 267.03546643 -239.93652344 265.32128906 C-243.84900592 264.71210462 -246.04900661 262.81150044 -248.59765625 259.921875 C-249.06042969 259.28765625 -249.52320313 258.6534375 -250 258 C-250.763125 257.05125 -251.52625 256.1025 -252.3125 255.125 C-254.87708207 250.37577394 -257 245.44961518 -257 240 C-257.50225098 240.33733154 -258.00450195 240.67466309 -258.52197266 241.0222168 C-286.49559796 259.65748462 -286.49559796 259.65748462 -301 257 C-304.39533339 255.19839453 -305.54669278 253.86344233 -307.3125 250.5 C-309.10230965 241.38824181 -307.85265802 233.06706666 -305.65625 224.12890625 C-305.06292443 221.30001467 -304.87100908 218.87542269 -305 216 C-305.94746094 216.89138672 -305.94746094 216.89138672 -306.9140625 217.80078125 C-313.75361843 224.13771852 -320.86600023 229.97282939 -328.2578125 235.65185547 C-329.92428274 236.94140825 -331.57351799 238.24991672 -333.21875 239.56640625 C-349.30267187 252.35048824 -368.40866728 266.457803 -390 264 C-394.85815659 261.52134868 -396.30833629 258.07499114 -398 253 C-398.48296394 250.32259798 -398.76176801 247.71584463 -399 245 C-399.7528125 245.4846875 -400.505625 245.969375 -401.28125 246.46875 C-419.46387084 257.94321946 -437.5428501 267.10397952 -459.4375 267.3125 C-460.44876953 267.34150391 -461.46003906 267.37050781 -462.50195312 267.40039062 C-468.90935382 267.45472605 -472.83383236 266.89534565 -478 263 C-483.94694354 255.99165972 -484.3302301 244.7510977 -484 236 C-484.67804688 236.49628906 -485.35609375 236.99257813 -486.0546875 237.50390625 C-488.02165209 238.93962694 -489.99339338 240.36881644 -491.96875 241.79296875 C-493.73843406 243.08146294 -495.495556 244.3882437 -497.21875 245.73828125 C-513.04405117 257.75060225 -532.87393091 263.67976074 -551.5625 269.5625 C-553.79404318 270.27797767 -556.02516552 270.99476932 -558.25585938 271.71289062 C-562.29515635 273.00856435 -566.33558708 274.30028087 -570.38110352 275.57641602 C-571.1793605 275.82827164 -571.97761749 276.08012726 -572.80006409 276.33961487 C-583.60874003 279.58420433 -597.5074605 279.84736954 -607.87890625 275.1875 C-615.01559244 271.19200718 -620.40025346 264.79923962 -623 257 C-623.37570107 252.94242848 -623.43182525 250.71970875 -621.3125 247.1875 C-618.84621706 244.85452966 -617.21451432 244.00217211 -614 243 C-606.87115938 243.20299881 -599.93067561 245.92065059 -593.20385742 248.10058594 C-584.06525326 251.01161687 -573.61379931 254.26974708 -564 253 C-559.39876354 249.67638842 -558.398252 245.01492944 -556.875 239.8125 C-556.62363281 238.99974609 -556.37226562 238.18699219 -556.11328125 237.34960938 C-555.37153206 234.90882737 -554.67811884 232.4591508 -554 230 C-553.79914795 229.31679688 -553.5982959 228.63359375 -553.39135742 227.9296875 C-551.44659388 220.53836347 -551.5658981 212.96529625 -551.5625 205.375 C-551.55943848 204.64242981 -551.55637695 203.90985962 -551.55322266 203.15509033 C-551.5358468 187.1115296 -553.87403945 171.706289 -557 156 C-557.66 156 -558.32 156 -559 156 C-560.79643635 157.89668975 -560.79643635 157.89668975 -562.75 160.4375 C-563.55179688 161.43910156 -564.35359375 162.44070312 -565.1796875 163.47265625 C-565.62666992 164.03355957 -566.07365234 164.59446289 -566.53417969 165.17236328 C-569.28264655 168.59924918 -572.08114967 171.98509789 -574.875 175.375 C-575.47497803 176.10404541 -576.07495605 176.83309082 -576.69311523 177.58422852 C-580.80889511 182.57787866 -584.96524018 187.53466807 -589.16308594 192.45947266 C-592.04300175 195.84428105 -594.84476802 199.28311314 -597.625 202.75 C-601.17633073 207.1223373 -604.97616029 211.09065215 -609.015625 215.01171875 C-610.65738509 216.65671065 -612.08565233 218.28925422 -613.5 220.125 C-617.3705889 224.57617723 -621.90977196 228.9961385 -627.609375 230.84765625 C-630 231 -630 231 -632.75 228.625 C-633.4925 227.75875 -634.235 226.8925 -635 226 C-635.33 225.67 -635.66 225.34 -636 225 C-636.38092322 221.88286772 -636.23155805 220.37541427 -634.56640625 217.67578125 C-633.90511719 216.89589844 -633.24382813 216.11601562 -632.5625 215.3125 C-631.8303125 214.44109375 -631.098125 213.5696875 -630.34375 212.671875 C-627.35438706 209.26400125 -624.3232516 205.89712356 -621.26953125 202.546875 C-618.22853158 199.13425575 -615.37437257 195.58429387 -612.5 192.03125 C-609.64461379 188.56909422 -606.70397933 185.19041588 -603.75 181.8125 C-593.37087929 169.91084435 -583.52778912 157.5915447 -574 145 C-573.48985352 144.32839844 -572.97970703 143.65679687 -572.45410156 142.96484375 C-570.82023369 140.81239618 -569.19064933 138.65677562 -567.5625 136.5 C-567.05388428 135.82904297 -566.54526855 135.15808594 -566.02124023 134.46679688 C-561.12691503 127.95526638 -558.59202774 122.97548863 -557.1875 114.9375 C-554.86097311 103.00323657 -550.97214229 92.61608669 -541 85 C-535.72734176 81.61311455 -531.1167106 80.28943372 -524.88671875 81.3984375 C-523 82 -523 82 -520.9375 83.625 C-518.81902498 88.99180339 -519.77006799 92.94954553 -521.75 98.1875 C-525.19615618 106.0359713 -529.77943734 113.2666431 -534.2578125 120.55859375 C-534.97565918 121.73784424 -534.97565918 121.73784424 -535.70800781 122.94091797 C-536.6958142 124.51521106 -537.76501971 126.03869831 -538.8671875 127.53515625 C-541.7556237 133.81999501 -539.7624309 142.23904882 -538.94140625 148.90625 C-538.8327977 149.829823 -538.72418915 150.753396 -538.61228943 151.70495605 C-538.26728584 154.63724716 -537.9157197 157.56868802 -537.5625 160.5 C-529.4462549 227.89250979 -529.4462549 227.89250979 -540 249 C-523.98548057 241.78867149 -510.12684063 233.74102766 -497 222 C-496.22825439 221.3208252 -496.22825439 221.3208252 -495.44091797 220.62792969 C-481.99859148 208.7939044 -470.28506381 195.8103982 -461 180.4375 C-459.87825684 178.60246545 -458.75583162 176.76784771 -457.6328125 174.93359375 C-457.04790039 173.97565918 -456.46298828 173.01772461 -455.86035156 172.03076172 C-452.56692793 166.66533377 -449.21846256 161.33433514 -445.875 156 C-444.62195537 154.00027593 -443.36932312 152.00029337 -442.1171875 150 C-441.58722168 149.154375 -441.05725586 148.30875 -440.51123047 147.4375 C-438.98297072 144.97253307 -437.48602884 142.49061324 -436 140 C-436.928125 140.061875 -437.85625 140.12375 -438.8125 140.1875 C-444.0595948 140.20904864 -449.05638617 138.65072226 -454 137 C-455.83132306 135.16867694 -455.29047035 132.6480529 -455.42578125 130.203125 C-454.7748297 126.83489864 -453.49967494 125.33408133 -451 123 C-448.20035092 122.31730482 -445.89351415 121.9483813 -443.0625 121.75 C-442.30686768 121.66814453 -441.55123535 121.58628906 -440.77270508 121.50195312 C-437.22039132 121.13880604 -433.98546306 121.00120349 -430.4140625 121.296875 C-426.70689063 121.53025628 -424.45046906 121.42442441 -421 120 C-412.05243998 111.58516923 -406.92131663 98.26111644 -401.43823242 87.49316406 C-384.24104945 53.87138839 -384.24104945 53.87138839 -369 47 C-365.80469964 46.29107484 -363.17562856 46.16798532 -360 47 C-356.57755611 49.67117572 -356.09696341 51.42791585 -355.375 55.6875 C-355.82336313 64.28463741 -363.57463786 72.3797724 -368.5625 79 C-369.79634217 80.65567701 -371.02939557 82.31194209 -372.26171875 83.96875 C-372.88224121 84.80148438 -373.50276367 85.63421875 -374.14208984 86.4921875 C-377.64040895 91.21422875 -381.06766563 95.98744392 -384.49926758 100.75805664 C-386.83579781 104.00523456 -389.17543027 107.24878987 -391.5546875 110.46484375 C-392.27914062 111.44582031 -393.00359375 112.42679687 -393.75 113.4375 C-394.36359375 114.26121094 -394.9771875 115.08492188 -395.609375 115.93359375 C-397.16298292 118.04342989 -397.16298292 118.04342989 -398 121 C-397.27941406 120.97679687 -396.55882812 120.95359375 -395.81640625 120.9296875 C-387.45987744 120.78924164 -379.20557401 121.24345105 -370.875 121.875 C-369.7722876 121.95347168 -368.6695752 122.03194336 -367.53344727 122.11279297 C-366.48858154 122.19674316 -365.44371582 122.28069336 -364.3671875 122.3671875 C-363.42987793 122.44050293 -362.49256836 122.51381836 -361.52685547 122.58935547 C-359 123 -359 123 -355 125 C-355 128.63 -355 132.26 -355 136 C-359.05162774 138.02581387 -361.99092885 138.40441782 -366.37890625 138.59765625 C-367.09915482 138.63562317 -367.81940338 138.67359009 -368.56147766 138.71270752 C-370.09946094 138.79298479 -371.63763615 138.86965257 -373.17596436 138.94302368 C-375.57527408 139.0631395 -377.97204798 139.20764784 -380.36962891 139.3581543 C-393.60732691 140.15848257 -393.60732691 140.15848257 -400.08203125 139.609375 C-406.7384544 139.05292539 -406.7384544 139.05292539 -413 141 C-418.20679473 146.06080983 -421.31746184 152.69962823 -424.5234375 159.12207031 C-426.32686631 162.63708665 -428.36284525 165.95970229 -430.45458984 169.30834961 C-454.20784752 206.01309109 -454.20784752 206.01309109 -461 248 C-459.01766487 250.40533071 -459.01766487 250.40533071 -455.1875 250.375 C-438.65090133 249.90026511 -423.72923111 239.65319136 -410.92578125 230.1015625 C-408 228 -408 228 -405.66796875 226.8984375 C-403.6358373 226.04961689 -403.6358373 226.04961689 -403 223 C-401.36328125 221.421875 -401.36328125 221.421875 -399.3125 219.75 C-395.86891484 216.8504642 -393.00674271 213.81862551 -390.2265625 210.28515625 C-389.82179688 209.86105469 -389.41703125 209.43695313 -389 209 C-388.34 209 -387.68 209 -387 209 C-386.7834375 208.46246094 -386.566875 207.92492187 -386.34375 207.37109375 C-384.52451575 204.16099146 -382.04120612 201.70109461 -379.5 199.0625 C-370.39087473 189.35779377 -362.756781 178.79923434 -355.1875 167.875 C-354.55287842 166.96886963 -353.91825684 166.06273926 -353.2644043 165.12915039 C-347.75949072 157.08104389 -343.18087556 148.87969278 -341.4375 139.1875 C-340.39427314 134.20253529 -339.32575322 130.86216503 -336 127 C-332.85088521 125.42544261 -330.47991184 125.65200882 -327 126 C-322.61893087 128.07105086 -322.61893087 128.07105086 -321 131 C-318.44596604 146.28521086 -325.81202392 159.71772047 -334.31347656 171.87890625 C-337.24101149 175.90918048 -340.27909629 179.85344104 -343.31884766 183.79931641 C-348.14841593 190.12137978 -352.82623171 196.55993472 -357.52294922 202.98095703 C-358.73230147 204.63407159 -359.94566187 206.28425328 -361.16015625 207.93359375 C-372.07340004 222.66340404 -372.07340004 222.66340404 -376.125 239.875 C-376.10695313 240.65617188 -376.08890625 241.43734375 -376.0703125 242.2421875 C-376.04710937 242.82226562 -376.02390625 243.40234375 -376 244 C-358.50678522 241.37601778 -344.274288 227.31493302 -331.78515625 215.6015625 C-329.28964827 213.27055505 -326.75112991 211.00531857 -324.1875 208.75 C-318.89280555 204.02537053 -313.93917366 198.96819757 -309.00073242 193.87597656 C-308.38174072 193.24530273 -307.76274902 192.61462891 -307.125 191.96484375 C-306.57070313 191.3937085 -306.01640625 190.82257324 -305.4453125 190.23413086 C-304 189 -304 189 -302 189 C-301.731875 188.401875 -301.46375 187.80375 -301.1875 187.1875 C-300.00082594 185.00152146 -298.90400887 183.58667406 -297 182 C-296.34 182 -295.68 182 -295 182 C-294.73574219 181.40703125 -294.47148438 180.8140625 -294.19921875 180.203125 C-292.95629575 177.91970946 -291.69598354 176.52573277 -289.8125 174.75 C-287.18334999 172.20830613 -284.74509076 169.5974863 -282.375 166.8125 C-277.19791774 160.88595149 -277.19791774 160.88595149 -274 159 C-269.99573428 158.9165778 -268.31010527 159.77566853 -265.0625 162.125 C-263 165 -263 165 -263.17529297 168.2253418 C-264.04149486 172.18992068 -265.3928121 175.63295606 -267.1328125 179.26953125 C-267.44583313 179.94378647 -267.75885376 180.61804169 -268.08135986 181.31272888 C-268.74663954 182.74496535 -269.41563027 184.17548309 -270.08807373 185.60437012 C-271.82803018 189.30959965 -273.5298236 193.03228956 -275.234375 196.75390625 C-275.56678192 197.47842987 -275.89918884 198.20295349 -276.2416687 198.94943237 C-284.49730537 216.73040612 -284.49730537 216.73040612 -287 236 C-282.85518903 235.46636473 -280.62458225 234.22856359 -277.4375 231.5625 C-274.71706612 229.30411555 -272.22965947 227.45737468 -269 226 C-269 225.34 -269 224.68 -269 224 C-267.63671875 222.66015625 -267.63671875 222.66015625 -265.6875 221.0625 C-261.9842528 217.91673088 -258.49761908 214.61924083 -255.0625 211.1875 C-254.3358313 210.46735718 -254.3358313 210.46735718 -253.59448242 209.73266602 C-250.96667347 207.11528876 -250.96667347 207.11528876 -249 204 C-248.34 204 -247.68 204 -247 204 C-246.75894531 203.46503906 -246.51789063 202.93007812 -246.26953125 202.37890625 C-244.66444346 199.37121867 -242.69495501 196.68290289 -240.6875 193.9375 C-237.07025091 188.94538715 -233.55625813 183.89609095 -230.1081543 178.78564453 C-221.65559145 166.27293642 -212.33985902 154.98996992 -202 144 C-201.34515625 143.29101562 -200.6903125 142.58203125 -200.015625 141.8515625 C-190.428784 131.81405804 -178.98241636 123.89110548 -167 117 C-166.28457031 116.54496094 -165.56914063 116.08992188 -164.83203125 115.62109375 C-159.07683158 112.21543951 -153.52883289 112.50137792 -147 113 C-145.85789062 113.0825 -144.71578125 113.165 -143.5390625 113.25 C-135.92811875 114.05645762 -130.0878386 115.98955814 -123.42578125 119.7578125 C-121.00917935 121.22789639 -121.00917935 121.22789639 -118 121 C-117.55011719 120.07703125 -117.10023438 119.1540625 -116.63671875 118.203125 C-99.37652434 83.07398364 -79.00137176 49.5112588 -52 21 C-51.48920898 20.45520996 -50.97841797 19.91041992 -50.45214844 19.34912109 C-37.9704335 6.10988987 -18.87897145 -12.77106892 0 0 Z M-34 27 C-35.37009005 28.17242884 -36.74547335 29.33868939 -38.125 30.5 C-41.13639533 33.09895281 -43.12875074 35.45447509 -45 39 C-45.53625 39.515625 -46.0725 40.03125 -46.625 40.5625 C-48.17409904 41.92961334 -48.17409904 41.92961334 -48.4375 44.0625 C-48.7159375 45.0215625 -48.7159375 45.0215625 -49 46 C-49.57363281 46.23589844 -50.14726563 46.47179687 -50.73828125 46.71484375 C-54.01254562 48.57534976 -55.70806865 51.43377735 -57.75 54.5 C-58.16121094 55.09425781 -58.57242188 55.68851563 -58.99609375 56.30078125 C-61.26804844 59.37422885 -61.26804844 59.37422885 -62 63 C-62.66 63 -63.32 63 -64 63 C-64.66 64.98 -65.32 66.96 -66 69 C-66.99 69 -67.98 69 -69 69 C-69.10957031 69.56589844 -69.21914062 70.13179687 -69.33203125 70.71484375 C-69.49058594 71.44832031 -69.64914062 72.18179688 -69.8125 72.9375 C-69.96332031 73.66839844 -70.11414062 74.39929688 -70.26953125 75.15234375 C-70.51058594 75.76207031 -70.75164063 76.37179688 -71 77 C-71.99 77.33 -72.98 77.66 -74 78 C-75.58696851 80.6791269 -75.58696851 80.6791269 -77 83.875 C-78.68381097 87.51448726 -80.04992097 90.28756622 -83 93 C-84.05226728 94.97300116 -85.04788888 96.97676387 -86 99 C-86.556875 100.0725 -87.11375 101.145 -87.6875 102.25 C-89.14357653 104.79296777 -89.14357653 104.79296777 -89 107 C-90.485 107.495 -90.485 107.495 -92 108 C-92.72923329 109.97804531 -93.38065265 111.9848441 -94 114 C-95.24227142 116.81669725 -96.6184596 119.56193316 -98 122.3125 C-98.35578125 123.04017578 -98.7115625 123.76785156 -99.078125 124.51757812 C-101.75578416 129.87789208 -101.75578416 129.87789208 -104 131 C-104.96050412 133.23472395 -104.96050412 133.23472395 -105.8125 135.9375 C-107.7609409 141.55489189 -110.22178284 146.75099135 -113 152 C-110.00306862 151.00102287 -108.97290587 150.34869747 -107 148 C-107 147.34 -107 146.68 -107 146 C-106.34 146 -105.68 146 -105 146 C-105 145.34 -105 144.68 -105 144 C-104.0409375 143.5978125 -104.0409375 143.5978125 -103.0625 143.1875 C-100.66868314 142.11332248 -100.66868314 142.11332248 -100 139 C-98.1875 138 -98.1875 138 -96 137 C-93.01922086 135.04120228 -92.15752615 134.47257844 -91 131 C-90.401875 130.71125 -89.80375 130.4225 -89.1875 130.125 C-86.27653846 128.62793406 -84.85987279 126.65696113 -83 124 C-83 123.34 -83 122.68 -83 122 C-82.360625 121.731875 -81.72125 121.46375 -81.0625 121.1875 C-78.66868314 120.11332248 -78.66868314 120.11332248 -78 117 C-77.34 117 -76.68 117 -76 117 C-76 116.34 -76 115.68 -76 115 C-75.34 115 -74.68 115 -74 115 C-71.37211797 112.69064913 -70.12005631 111.36016893 -69 108 C-67.58203125 106.67578125 -67.58203125 106.67578125 -65.8125 105.3125 C-62.38922438 102.50077465 -59.89774036 99.44706282 -57.359375 95.83203125 C-56 94 -56 94 -54.38671875 92.421875 C-52.79621332 90.98530073 -52.79621332 90.98530073 -52.0625 88.4375 C-51 86 -51 86 -48.875 84.6875 C-48.25625 84.460625 -47.6375 84.23375 -47 84 C-47 83.01 -47 82.02 -47 81 C-46.01 80.67 -45.02 80.34 -44 80 C-43.67 79.01 -43.34 78.02 -43 77 C-42.01 76.34 -41.02 75.68 -40 75 C-39.505 73.4840625 -39.505 73.4840625 -39 71.9375 C-38.67 70.968125 -38.34 69.99875 -38 69 C-37.01 68.67 -36.02 68.34 -35 68 C-33.77479736 64.99152582 -33.77479736 64.99152582 -33 62 C-32.34 62 -31.68 62 -31 62 C-29.5393715 59.35261084 -29 58.10551666 -29 55 C-28.401875 54.814375 -27.80375 54.62875 -27.1875 54.4375 C-24.50729572 52.6762229 -23.84501206 50.81307495 -22.71875 47.875 C-21.22837425 43.98706326 -19.30456522 40.45684783 -17 37 C-16.54605448 34.72087062 -16.54605448 34.72087062 -16.375 32.3125 C-16.30023437 31.50425781 -16.22546875 30.69601563 -16.1484375 29.86328125 C-16.07496094 28.94095703 -16.07496094 28.94095703 -16 28 C-15.34 28 -14.68 28 -14 28 C-13.80522261 26.37585622 -13.61940542 24.75063577 -13.4375 23.125 C-13.33308594 22.22007813 -13.22867188 21.31515625 -13.12109375 20.3828125 C-12.80325148 17.98346943 -12.80325148 17.98346943 -14 16 C-23.10322377 14.86209703 -27.99629063 20.8461979 -34 27 Z M-166 136 C-166 136.66 -166 137.32 -166 138 C-166.804375 138.28875 -167.60875 138.5775 -168.4375 138.875 C-171.1326468 139.73262568 -171.1326468 139.73262568 -172 142 C-172.99 142.33 -173.98 142.66 -175 143 C-175 143.66 -175 144.32 -175 145 C-175.66 145 -176.32 145 -177 145 C-178.18525848 146.42231017 -179.36584072 147.84884114 -180.51953125 149.296875 C-182.02629101 151.03024507 -183.5989677 152.42224549 -185.375 153.875 C-192.50772921 159.84694245 -198.01183627 167.44012416 -203.73706055 174.72045898 C-205.84832113 177.39085675 -207.91937058 179.91950563 -210.33203125 182.328125 C-212.14720886 183.86138774 -212.14720886 183.86138774 -212.5 186 C-213 188 -213 188 -214.83984375 189.78125 C-217.19505636 192.20034722 -218.52020165 194.5058848 -220.0625 197.5 C-222.72038051 202.63245892 -222.72038051 202.63245892 -224.515625 204.9921875 C-226.30198182 207.40847014 -227.45806067 209.88552858 -228.6875 212.625 C-229.12449219 213.58664062 -229.56148437 214.54828125 -230.01171875 215.5390625 C-231.12422004 217.86732863 -231.12422004 217.86732863 -231 220 C-231.66 220 -232.32 220 -233 220 C-233.86975343 222.87108918 -234.72100833 225.74562533 -235.5625 228.625 C-235.9327832 229.83736328 -235.9327832 229.83736328 -236.31054688 231.07421875 C-238.17820671 237.54526551 -238.31551577 242.89247096 -235 249 C-230.79236346 250.55772076 -227.09701357 249.45181743 -223 248 C-220.55689632 246.78995053 -218.3171164 245.44819775 -216 244 C-216 243.34 -216 242.68 -216 242 C-215.21625 241.855625 -214.4325 241.71125 -213.625 241.5625 C-211.03578982 241.12201075 -211.03578982 241.12201075 -209 240 C-209 239.34 -209 238.68 -209 238 C-207.824375 237.5359375 -207.824375 237.5359375 -206.625 237.0625 C-204.07669872 236.07124962 -204.07669872 236.07124962 -202 235 C-202 234.34 -202 233.68 -202 233 C-201.236875 232.731875 -200.47375 232.46375 -199.6875 232.1875 C-197.05635874 231.0249027 -195.94262348 230.02708537 -194 228 C-193.38125 227.71125 -192.7625 227.4225 -192.125 227.125 C-189.21058225 225.58207296 -187.32912263 223.33571138 -185 221 C-182.9331996 219.14258134 -180.81504491 217.34977572 -178.6875 215.5625 C-178.11644531 215.07950439 -177.54539062 214.59650879 -176.95703125 214.09887695 C-173.87881581 211.51294965 -170.76427305 209.0377766 -167.5 206.6875 C-165.06185315 204.91894903 -163.18369579 203.17308546 -161.3125 200.8125 C-158.98962393 197.98738045 -157.08549365 196.85129619 -154 195 C-152.30911778 193.02043058 -150.64169528 191.02054804 -149 189 C-148.236875 188.443125 -147.47375 187.88625 -146.6875 187.3125 C-146.130625 186.879375 -145.57375 186.44625 -145 186 C-145 185.01 -145 184.02 -145 183 C-144.01 182.67 -143.02 182.34 -142 182 C-140.5522078 179.10441559 -140 177.25811062 -140 174 C-139.34 174 -138.68 174 -138 174 C-137.82984375 173.16597656 -137.6596875 172.33195312 -137.484375 171.47265625 C-136.3390764 166.1543282 -135.24039722 161.10821684 -132.875 156.1875 C-130.64190714 151.44434151 -129.00685995 147.08483726 -130.69921875 141.828125 C-132.44554769 138.04556271 -134.18463096 134.96922273 -138 133 C-138.99 133 -139.98 133 -141 133 C-141 132.34 -141 131.68 -141 131 C-150.55397813 127.81534062 -157.63642501 131.17154434 -166 136 Z " fill="#FAFAF5" transform="translate(1277,44)"/>
<path d="M0 0 C2.79168721 2.79168721 2.33260616 4.59976627 2.375 8.5 C2.10904368 21.61164645 -5.2320327 34.22498287 -13.78515625 44.05078125 C-17.64893258 50.25021659 -15.15990011 62.01625713 -14.3203125 69.01171875 C-12.15960118 87.16090526 -11.66347646 105.09984683 -11.625 123.375 C-11.61376099 125.2310083 -11.61376099 125.2310083 -11.60229492 127.12451172 C-11.53306795 141.05297819 -11.81627115 154.39723445 -15 168 C-4.28581844 162.59862139 6.02978347 156.96745062 15.8984375 150.12890625 C19 148 19 148 21.73828125 146.41796875 C23.96057606 145.02471657 25.22213451 143.80642426 26.8125 141.75 C28.91766494 139.15878179 31.09544577 136.96427072 33.6484375 134.81640625 C38.27023258 130.83003513 42.53670464 126.53877277 46.8125 122.1875 C48.29582138 120.67867008 49.78140176 119.17205673 51.26953125 117.66796875 C52.23789917 116.68219849 52.23789917 116.68219849 53.22583008 115.67651367 C55.9095397 113.14052441 57.2954442 111.98562131 61.0625 112.0625 C64 113 64 113 65.375 115.1875 C66.56612621 120.54756796 66.54160011 123.56266242 63.5625 128.25 C59.7864164 133.53651704 55.4642814 138.29110044 51 143 C50.3503125 143.6909375 49.700625 144.381875 49.03125 145.09375 C43.74513281 150.55318251 37.95936193 155.29693599 32 160 C31.10796875 160.7321875 30.2159375 161.464375 29.296875 162.21875 C14.68946447 173.80675165 -1.73810813 180.49690317 -19.43603516 185.90673828 C-22.72283404 186.91497814 -26.00094524 187.94687176 -29.27783203 188.98666382 C-32.22448029 189.9190043 -35.17477617 190.83936333 -38.12615967 191.7565918 C-39.56444706 192.20452832 -41.00185582 192.65529757 -42.43829346 193.10913086 C-56.08811767 197.40496989 -69.84024087 200.59136571 -83.4375 194.125 C-84.63924813 193.44111859 -85.82885148 192.7350534 -87 192 C-87.86625 191.46375 -88.7325 190.9275 -89.625 190.375 C-94.5967984 185.4032016 -98.33530881 179.86540384 -98.625 172.6875 C-98.3543143 168.38359731 -97.25548256 165.9682341 -94 163 C-91.53923429 161.76961715 -90.23033267 161.95853223 -87.5 162.1875 C-86.7059375 162.24292969 -85.911875 162.29835938 -85.09375 162.35546875 C-82.28254369 162.94113673 -80.10394046 163.75528292 -77.48046875 164.87890625 C-71.41379351 167.39020923 -65.25164417 168.57656284 -58.8125 169.75 C-57.67619141 169.97042969 -56.53988281 170.19085938 -55.36914062 170.41796875 C-49.83537712 171.45696108 -44.6320866 172.29342275 -39 172 C-37.89068229 169.52303031 -36.78750704 167.0436024 -35.6875 164.5625 C-35.2244043 163.53092773 -35.2244043 163.53092773 -34.75195312 162.47851562 C-34.44580078 161.78564453 -34.13964844 161.09277344 -33.82421875 160.37890625 C-33.54666748 159.7557251 -33.26911621 159.13254395 -32.9831543 158.49047852 C-32.65871338 157.66862061 -32.33427246 156.8467627 -32 156 C-31.74702652 155.36742279 -31.49405304 154.73484558 -31.2334137 154.08309937 C-29.0548901 148.20289701 -28.54725859 142.95785938 -28.56640625 136.71875 C-28.55966888 135.75458664 -28.55293152 134.79042328 -28.54598999 133.79704285 C-28.53268955 130.69771393 -28.54520959 127.59929919 -28.5625 124.5 C-28.5638797 123.44930328 -28.5652594 122.39860657 -28.56668091 121.31607056 C-27.8816673 96.5729224 -27.8816673 96.5729224 -34 73 C-34.33620361 73.44690186 -34.67240723 73.89380371 -35.01879883 74.35424805 C-41.6137317 83.10084633 -48.30271065 91.70545659 -55.4453125 100.01171875 C-57.88679229 102.86757814 -60.26306639 105.76573092 -62.625 108.6875 C-66.24951419 113.14047457 -70.0219672 117.42665568 -73.88671875 121.671875 C-75.76337885 123.73932309 -77.60744573 125.82886604 -79.4375 127.9375 C-93.4232174 143.93042684 -93.4232174 143.93042684 -101 150 C-101.90492188 150.73089844 -102.80984375 151.46179688 -103.7421875 152.21484375 C-118.20652311 163.50453947 -132.58388141 168.22073608 -150.6875 169.625 C-158.37756486 170.54126305 -163.05327738 173.88597454 -169.140625 178.31640625 C-173.1141494 181.17738491 -177.29985787 183.40549726 -181.6875 185.5625 C-182.359021 185.89652832 -183.03054199 186.23055664 -183.72241211 186.57470703 C-190.62803481 189.92667745 -196.17177063 190.21011458 -203.75 190.25 C-205.19632813 190.2809375 -205.19632813 190.2809375 -206.671875 190.3125 C-214.03157892 190.35249839 -219.39073272 189.21477765 -225.75 185.3125 C-234.23462341 176.59219261 -234.62114215 162.54632371 -236 151 C-236.63164063 151.53367187 -237.26328125 152.06734375 -237.9140625 152.6171875 C-267.35238362 177.13498232 -267.35238362 177.13498232 -284.375 177.25 C-285.50808594 177.2809375 -285.50808594 177.2809375 -286.6640625 177.3125 C-291.27357365 177.34473434 -294.25124486 176.98163536 -298 174 C-302.76589627 164.46820745 -298.37164874 147.36741715 -295.26611328 137.72021484 C-287.79287383 116.29161884 -272.69878854 77.84939427 -251 67 C-246.76279307 66.57464332 -243.16919689 66.31559206 -239.4375 68.5 C-238.963125 68.995 -238.48875 69.49 -238 70 C-239.05388456 79.33242508 -245.24189568 87.76124028 -251 95 C-251.66 95 -252.32 95 -253 95 C-253.114646 95.72276123 -253.22929199 96.44552246 -253.34741211 97.19018555 C-254.02732804 100.11766496 -255.02749556 102.31159236 -256.44140625 104.95703125 C-257.18789429 106.36698364 -257.18789429 106.36698364 -257.94946289 107.80541992 C-258.74791626 109.29392456 -258.74791626 109.29392456 -259.5625 110.8125 C-260.65691726 112.88766907 -261.75066478 114.96319148 -262.84375 117.0390625 C-264.32670811 119.84228008 -265.81095606 122.64476202 -267.30078125 125.44433594 C-272.43966461 135.14204475 -277.32471437 144.73647028 -277 156 C-263.81409371 154.44201107 -252.90914328 140.9624117 -244 132 C-242.80274454 130.81313472 -241.60477127 129.62699328 -240.40625 128.44140625 C-239.10412063 127.14848386 -237.80203821 125.85551419 -236.5 124.5625 C-235.84902344 123.91990234 -235.19804688 123.27730469 -234.52734375 122.61523438 C-232.66476631 120.76206389 -230.82741939 118.88779157 -229 117 C-228.5047583 116.5052417 -228.0095166 116.0104834 -227.49926758 115.50073242 C-223.70839943 111.42595126 -222.79411279 107.45398797 -221.6875 102.1875 C-218.36101527 88.22603595 -212.90303964 75.57783239 -203 65 C-202.22785156 64.14921875 -201.45570312 63.2984375 -200.66015625 62.421875 C-187.43912248 48.4698204 -172.25341804 42.30379779 -153.24560547 41.66333008 C-142.15288509 41.48397301 -134.06551233 43.25931635 -125.7578125 51.0625 C-117.41041165 60.26319072 -117.69417975 69.47184173 -117.5949707 81.29174805 C-117.57358246 83.19916094 -117.53971403 85.10648102 -117.49243164 87.01342773 C-117.1734461 100.01918326 -118.35481257 110.22847823 -124 122 C-124.51280518 123.08192627 -125.02561035 124.16385254 -125.55395508 125.27856445 C-127.0184001 128.24258608 -128.55157678 131.15508753 -130.125 134.0625 C-130.63675781 135.02865234 -131.14851563 135.99480469 -131.67578125 136.99023438 C-134.36387673 142.04509772 -137.12857401 147.04713365 -140 152 C-117.41754266 143.15457058 -103.09206657 128.3605778 -88.10546875 109.578125 C-85.12256693 105.92559216 -81.94511718 102.46301777 -78.75 98.99609375 C-76.95218021 97.11549325 -76.95218021 97.11549325 -76 95 C-75.34 95 -74.68 95 -74 95 C-73.773125 94.46375 -73.54625 93.9275 -73.3125 93.375 C-71.54429911 90.17539839 -69.46329797 87.70962777 -67 85 C-66.34 85 -65.68 85 -65 85 C-64.73445313 84.42886475 -64.46890625 83.85772949 -64.1953125 83.26928711 C-62.93681379 80.8800417 -61.50167226 78.84603769 -59.875 76.69140625 C-59.2552832 75.86777588 -58.63556641 75.04414551 -57.99707031 74.19555664 C-57.00852051 72.8921936 -57.00852051 72.8921936 -56 71.5625 C-55.32807617 70.67103271 -54.65615234 69.77956543 -53.96386719 68.86108398 C-49.34527397 62.74327023 -44.67867903 56.66443529 -39.953125 50.62890625 C-35.04548141 44.02321798 -33.66634597 37.96074762 -31.98242188 30.01171875 C-29.86752404 20.49810066 -26.94646125 11.05960335 -18.5625 5.3359375 C-12.03694955 1.33334696 -7.65476966 -0.36451284 0 0 Z M-169 62 C-170.66552087 62.73178004 -172.33220778 63.46091145 -174 64.1875 C-175.32 64.785625 -176.64 65.38375 -178 66 C-178.33 70.29 -178.66 74.58 -179 79 C-180.65 79.66 -182.3 80.32 -184 81 C-185.36078035 83.52372901 -185.36078035 83.52372901 -186 86 C-186.66 86 -187.32 86 -188 86 C-188.33 87.32 -188.66 88.64 -189 90 C-189.66 90 -190.32 90 -191 90 C-192.4606285 92.64738916 -193 93.89448334 -193 97 C-193.66 97 -194.32 97 -195 97 C-195.98753064 98.72440365 -196.96468806 100.45475026 -197.9375 102.1875 C-198.48277344 103.15042969 -199.02804687 104.11335938 -199.58984375 105.10546875 C-200.90579333 107.80662842 -201.57301887 110.04356101 -202 113 C-202.66 113 -203.32 113 -204 113 C-206.50081113 116.75121669 -206.43285285 120.65482327 -206 125 C-205.10202887 128.36821272 -205.10202887 128.36821272 -204 131 C-203.34 131 -202.68 131 -202 131 C-201.773125 132.051875 -201.54625 133.10375 -201.3125 134.1875 C-200.18840766 138.16630167 -198.2038144 140.35685312 -195 143 C-194.34 143 -193.68 143 -193 143 C-192.67 143.99 -192.34 144.98 -192 146 C-183.73903218 150.83568848 -175.36100942 152.673857 -166 154 C-163.22999175 150.67913229 -163.22999175 150.67913229 -161 147 C-160.01 146.5978125 -160.01 146.5978125 -159 146.1875 C-156.71525923 145.14044802 -156.71525923 145.14044802 -156.25 142.375 C-156.1675 141.59125 -156.085 140.8075 -156 140 C-155.34 140 -154.68 140 -154 140 C-151.68407978 136.77885843 -151.68407978 136.77885843 -151 133 C-150.34 133 -149.68 133 -149 133 C-148.443125 131.865625 -147.88625 130.73125 -147.3125 129.5625 C-145.79483794 126.48936935 -144.1392534 123.56193221 -142.375 120.625 C-139.71979596 115.94367104 -138.74027844 111.29243843 -138 106 C-137.34 106 -136.68 106 -136 106 C-133.68239921 98.31604975 -132.68105609 91.11999976 -132.625 83.125 C-132.60469727 81.93136841 -132.60469727 81.93136841 -132.58398438 80.71362305 C-132.63951962 73.34980364 -134.66318748 67.33681252 -140 62 C-148.53018039 56.62227758 -160.21151486 57.65124648 -169 62 Z M-215 148 C-216.6196057 151.2392114 -216.22623755 154.75704381 -216.25 158.3125 C-216.270625 159.07240234 -216.29125 159.83230469 -216.3125 160.61523438 C-216.34464805 165.24053535 -215.99608665 168.24034757 -213 172 C-210.31173174 173.34413413 -208.18764598 173.13239863 -205.1875 173.125 C-204.14980469 173.12757813 -203.11210938 173.13015625 -202.04296875 173.1328125 C-199.24657058 173.01076175 -196.72060121 172.63363355 -194 172 C-194 171.34 -194 170.68 -194 170 C-192.02 169.34 -190.04 168.68 -188 168 C-188 167.34 -188 166.68 -188 166 C-191.3 165.01 -194.6 164.02 -198 163 C-198 162.34 -198 161.68 -198 161 C-199.11375 160.7525 -200.2275 160.505 -201.375 160.25 C-205 159 -205 159 -206.0625 157.1875 C-206.371875 156.465625 -206.68125 155.74375 -207 155 C-208.95927063 153.2856382 -210.95880212 151.61594832 -213 150 C-213.66 149.34 -214.32 148.68 -215 148 Z " fill="#FAFAF5" transform="translate(1528,125)"/>
<path d="M0 0 C3.11692278 0.56505618 4.84063645 2.13445782 7.00390625 4.36328125 C10.74796426 11.85139726 7.8615211 24.22207144 5.4453125 31.71484375 C0.55164352 44.10152892 -6.61908141 55.05091662 -14.07421875 66.01953125 C-25.10526054 82.30002578 -36.78350453 100.33465239 -37.99609375 120.36328125 C-28.93538553 119.72067783 -23.02063824 117.15001846 -15.81005859 111.72216797 C-13.75196135 110.18039553 -11.66663778 108.67998694 -9.578125 107.1796875 C4.57187185 96.95686525 18.13558456 86.16311414 31.00390625 74.36328125 C33.01033271 72.58807866 35.02751385 70.82627831 37.05078125 69.0703125 C38.44661249 67.850356 39.83079962 66.61702465 41.20703125 65.375 C41.92375 64.73175781 42.64046875 64.08851563 43.37890625 63.42578125 C44.02601563 62.83925781 44.673125 62.25273437 45.33984375 61.6484375 C47.00390625 60.36328125 47.00390625 60.36328125 49.00390625 60.36328125 C49.22433594 59.82574219 49.44476562 59.28820312 49.671875 58.734375 C51.45441928 55.56134163 53.83982135 53.06023611 56.31640625 50.42578125 C56.79013672 49.91337891 57.26386719 49.40097656 57.75195312 48.87304688 C58.69832031 47.85418098 59.65116576 46.84129156 60.6105957 45.8347168 C61.9535885 44.41642039 63.2608493 42.96454889 64.56640625 41.51171875 C67.24579071 39.15008181 68.19947167 38.74199522 71.69140625 38.92578125 C72.45839844 38.94769531 73.22539063 38.96960938 74.015625 38.9921875 C76.00390625 39.36328125 76.00390625 39.36328125 78.00390625 41.36328125 C81.51999185 71.25000889 55.23913062 110.09798921 43.00390625 136.36328125 C43.81214844 136.61722656 44.62039063 136.87117187 45.453125 137.1328125 C47.05607422 137.64908203 47.05607422 137.64908203 48.69140625 138.17578125 C49.74714844 138.51222656 50.80289063 138.84867188 51.890625 139.1953125 C54.8617324 140.30994376 57.34672579 141.64276923 60.00390625 143.36328125 C59.91605287 144.78105307 59.80785978 146.19757164 59.69140625 147.61328125 C59.63339844 148.4021875 59.57539062 149.19109375 59.515625 150.00390625 C58.88943294 152.89108187 58.04903193 154.23164808 56.00390625 156.36328125 C53.55200195 156.81738281 53.55200195 156.81738281 50.6796875 156.75390625 C49.65166016 156.74101562 48.62363281 156.728125 47.56445312 156.71484375 C45.95666992 156.66457031 45.95666992 156.66457031 44.31640625 156.61328125 C43.23294922 156.59523438 42.14949219 156.5771875 41.03320312 156.55859375 C38.35588479 156.51141633 35.68033716 156.44560374 33.00390625 156.36328125 C32.50129272 157.27146606 32.50129272 157.27146606 31.98852539 158.19799805 C27.69633373 165.94013726 23.36547009 173.66005861 19.00390625 181.36328125 C18.6705426 181.95222168 18.33717896 182.54116211 17.99371338 183.14794922 C9.63504429 197.89115246 0.91221556 212.32570537 -8.49609375 226.42578125 C-8.9071637 227.04295013 -9.31823364 227.66011902 -9.74176025 228.29598999 C-17.16515351 239.40871913 -24.82254278 250.24430391 -33.90234375 260.0859375 C-35.69603517 262.03691157 -37.41347131 264.02515769 -39.12109375 266.05078125 C-48.3386412 276.57290039 -58.26417594 286.68216899 -69.99609375 294.36328125 C-70.59115723 294.80607422 -71.1862207 295.24886719 -71.79931641 295.70507812 C-83.03534712 303.97261927 -93.61801388 305.31178646 -107.18359375 305.30078125 C-107.9539798 305.30522247 -108.72436584 305.3096637 -109.51809692 305.3142395 C-125.59759855 305.30375199 -125.59759855 305.30375199 -131.99609375 299.36328125 C-133.21425781 298.2340625 -133.21425781 298.2340625 -134.45703125 297.08203125 C-135.40449219 295.98375 -135.40449219 295.98375 -136.37109375 294.86328125 C-137.34175781 293.765 -137.34175781 293.765 -138.33203125 292.64453125 C-144.04557019 284.81188631 -143.01531678 273.47007518 -141.69140625 264.23876953 C-137.48062579 242.62092341 -125.39303475 224.47892684 -110.99609375 208.36328125 C-109.82921159 206.98846412 -108.66251516 205.61348931 -107.49609375 204.23828125 C-81.28927196 174.77098633 -45.17035686 153.78233106 -7.05859375 144.05078125 C-5.64151123 143.68110229 -5.64151123 143.68110229 -4.19580078 143.30395508 C0.21376438 142.18755603 4.54279173 141.25079536 9.0546875 140.6640625 C14.79431939 139.77996129 19.86932051 138.97119883 23.70605469 134.28369141 C27.08690033 128.91615244 29.51194328 123.17282168 31.83544922 117.28564453 C32.95933205 114.47476332 34.17427141 111.73139786 35.4453125 108.984375 C39.23772686 101.91122638 39.23772686 101.91122638 41.00390625 94.36328125 C40.54765869 94.69424805 40.09141113 95.02521484 39.62133789 95.36621094 C34.91655486 98.77698791 30.20432619 102.1772688 25.48779297 105.57177734 C23.22950692 107.20056671 20.97763618 108.83783162 18.7265625 110.4765625 C8.90895086 117.57367334 -1.20706184 124.02416597 -11.71875 130.04736328 C-13.75830351 131.22587887 -15.76790848 132.44310316 -17.77734375 133.671875 C-26.62908473 138.71696132 -34.99660365 140.03327806 -44.99609375 138.36328125 C-50.66606927 135.23456368 -53.93426684 131.54876197 -55.99609375 125.36328125 C-57.45524487 98.00419779 -45.1795504 76.30874517 -29.54296875 54.5 C-18.91739791 39.46279605 -11.30350492 23.65214804 -9.49755859 5.23486328 C-8.16505123 0.26163958 -4.76673051 -0.16679168 0 0 Z M-8.43359375 161.86328125 C-12.86868186 163.73068677 -17.2705378 164.55508758 -21.99609375 165.36328125 C-21.99609375 166.02328125 -21.99609375 166.68328125 -21.99609375 167.36328125 C-22.94484375 167.50765625 -23.89359375 167.65203125 -24.87109375 167.80078125 C-27.88954315 168.19263524 -27.88954315 168.19263524 -29.99609375 169.36328125 C-29.99609375 170.02328125 -29.99609375 170.68328125 -29.99609375 171.36328125 C-30.75535156 171.47285156 -31.51460938 171.58242188 -32.296875 171.6953125 C-33.29074219 171.85386719 -34.28460938 172.01242187 -35.30859375 172.17578125 C-36.29472656 172.32660156 -37.28085937 172.47742188 -38.296875 172.6328125 C-41.2730225 173.43822434 -41.94303487 174.18355549 -43.99609375 176.36328125 C-47.01299963 177.97229772 -50.09020833 179.40757046 -53.18359375 180.86328125 C-55.72224856 182.21723048 -57.05164109 183.33428717 -58.99609375 185.36328125 C-61.49676886 186.94265501 -64.05335615 188.39600262 -66.62109375 189.86328125 C-68.76395501 191.21666731 -70.25964204 192.54744889 -71.99609375 194.36328125 C-72.94484375 194.98203125 -73.89359375 195.60078125 -74.87109375 196.23828125 C-78.00623535 198.37017754 -80.35334648 200.65607673 -82.99609375 203.36328125 C-84.13651546 204.30735677 -85.28271691 205.2444796 -86.43359375 206.17578125 C-89.71376706 208.93653449 -92.10016405 211.99155293 -94.578125 215.47265625 C-96.48072173 218.0094519 -98.75741919 220.12460669 -100.99609375 222.36328125 C-101.32609375 223.35328125 -101.65609375 224.34328125 -101.99609375 225.36328125 C-102.97257392 226.38626047 -103.97740713 227.38232377 -104.99609375 228.36328125 C-108.00950569 231.8475388 -109.97351887 235.24034016 -111.99609375 239.36328125 C-112.94564004 240.93113675 -113.90494 242.49310479 -114.87109375 244.05078125 C-122.21477042 256.21088426 -125.7680197 267.53484487 -123.43359375 281.80078125 C-121.36977707 285.4797588 -118.88526133 287.04652992 -114.99609375 288.36328125 C-103.42776418 290.80047622 -93.14175726 288.02143975 -82.99609375 282.36328125 C-82.99609375 281.70328125 -82.99609375 281.04328125 -82.99609375 280.36328125 C-82.41859375 280.23953125 -81.84109375 280.11578125 -81.24609375 279.98828125 C-77.09681368 278.83570345 -75.33505107 277.77003004 -72.49609375 274.36328125 C-69.99609375 271.36328125 -69.99609375 271.36328125 -68.0625 270.421875 C-65.54743232 269.13343768 -64.23571603 267.59074694 -62.43359375 265.42578125 C-59.15848626 261.52337032 -59.15848626 261.52337032 -57.34375 259.734375 C-55.8781481 258.3840883 -55.8781481 258.3840883 -54.99609375 256.36328125 C-54.00609375 256.03328125 -53.01609375 255.70328125 -51.99609375 255.36328125 C-50.09282073 252.30650943 -48.42276506 249.34995865 -46.99609375 246.05078125 C-45.70358304 243.86966943 -44.31098338 243.2892371 -41.99609375 242.36328125 C-41.99609375 241.37328125 -41.99609375 240.38328125 -41.99609375 239.36328125 C-41.00609375 239.03328125 -40.01609375 238.70328125 -38.99609375 238.36328125 C-38.29458223 237.04794715 -37.6308345 235.71210533 -36.99609375 234.36328125 C-36.48046875 233.88890625 -35.96484375 233.41453125 -35.43359375 232.92578125 C-33.76230347 231.39324226 -33.76230347 231.39324226 -33.55859375 228.80078125 C-33.37296875 227.99640625 -33.18734375 227.19203125 -32.99609375 226.36328125 C-31.67962256 225.66390593 -30.34587224 224.99598992 -28.99609375 224.36328125 C-28.19080486 222.31327254 -28.19080486 222.31327254 -27.99609375 220.36328125 C-27.33609375 220.36328125 -26.67609375 220.36328125 -25.99609375 220.36328125 C-25.39796875 219.29078125 -24.79984375 218.21828125 -24.18359375 217.11328125 C-22.96460596 214.96161597 -21.76976344 213.07228513 -20.24609375 211.11328125 C-18.70547465 209.31484473 -18.70547465 209.31484473 -18.99609375 206.36328125 C-18.33609375 206.36328125 -17.67609375 206.36328125 -16.99609375 206.36328125 C-16.00609375 203.39328125 -16.00609375 203.39328125 -14.99609375 200.36328125 C-14.33609375 200.36328125 -13.67609375 200.36328125 -12.99609375 200.36328125 C-12.74214844 199.8321875 -12.48820312 199.30109375 -12.2265625 198.75390625 C-10.39858629 195.0021049 -8.54745064 191.6800452 -5.99609375 188.36328125 C-5.99609375 187.70328125 -5.99609375 187.04328125 -5.99609375 186.36328125 C-5.33609375 186.36328125 -4.67609375 186.36328125 -3.99609375 186.36328125 C-3.33609375 183.72328125 -2.67609375 181.08328125 -1.99609375 178.36328125 C-1.33609375 178.36328125 -0.67609375 178.36328125 0.00390625 178.36328125 C1.17567143 176.24095146 2.3414541 174.11570334 3.50390625 171.98828125 C4.00470703 171.08335937 4.00470703 171.08335937 4.515625 170.16015625 C6.39164563 166.94913348 6.39164563 166.94913348 7.00390625 163.36328125 C7.66390625 163.36328125 8.32390625 163.36328125 9.00390625 163.36328125 C9.33390625 161.71328125 9.66390625 160.06328125 10.00390625 158.36328125 C3.46533038 158.02796967 -2.45675269 159.25520515 -8.43359375 161.86328125 Z " fill="#FAFAF5" transform="translate(467.99609375,165.63671875)"/>
<path d="M0 0 C20 0 20 0 26 1 C27.62394748 1.0620775 29.25005297 1.08712041 30.875 1.0625 C31.65617188 1.05347656 32.43734375 1.04445313 33.2421875 1.03515625 C34.11230469 1.01775391 34.11230469 1.01775391 35 1 C34.93039062 1.87140625 34.86078125 2.7428125 34.7890625 3.640625 C34.30513341 14.28706493 36.99933606 20.85483603 42.734375 29.6640625 C47.48020101 37.32518163 48.09312867 44.16037293 47 53 C46.19555664 55.12792969 46.19555664 55.12792969 45 57 C37.23760049 59.71898414 29.03341977 59.27178753 20.90454102 59.20581055 C18.54367459 59.18735282 16.18319728 59.1853027 13.82226562 59.18554688 C12.32030909 59.18063783 10.81835521 59.17481221 9.31640625 59.16796875 C8.61125381 59.16685593 7.90610138 59.1657431 7.17958069 59.16459656 C2.23230084 59.11615042 2.23230084 59.11615042 0 58 C0 38.86 0 19.72 0 0 Z M11 1 C11 7.27 11 13.54 11 20 C16.82844992 19.33084658 16.82844992 19.33084658 21 17 C21 20.3 21 23.6 21 27 C20.01 26.67 19.02 26.34 18 26 C17.67 25.34 17.34 24.68 17 24 C15.02 24 13.04 24 11 24 C11 34.89 11 45.78 11 57 C12.65 57 14.3 57 16 57 C16 56.34 16 55.68 16 55 C16.928125 54.7215625 16.928125 54.7215625 17.875 54.4375 C21.05602866 52.28562767 21.19451947 49.62466237 22 46 C22.928125 46.2784375 22.928125 46.2784375 23.875 46.5625 C26.04160178 47.23686176 26.04160178 47.23686176 28 46 C28.2475 47.11375 28.495 48.2275 28.75 49.375 C29.59365982 53.04208728 29.59365982 53.04208728 32.0625 54.3125 C32.701875 54.539375 33.34125 54.76625 34 55 C34.33 55.66 34.66 56.32 35 57 C37.50405067 55.12694353 37.9717169 54.19314042 38.43359375 51.0390625 C38.43488281 49.91242188 38.43617188 48.78578125 38.4375 47.625 C38.45683594 46.50351562 38.47617187 45.38203125 38.49609375 44.2265625 C37.90716541 40.39620966 36.56107847 38.83459171 34 36 C33.63215869 34.6757713 33.28797019 33.34386088 33 32 C32.34 31.67 31.68 31.34 31 31 C26.31162069 24.71961651 25.15854648 18.71112425 25 11 C23.68 11 22.36 11 21 11 C20.896875 10.0925 20.79375 9.185 20.6875 8.25 C19.97792658 4.89565294 19.54380077 3.28064896 17 1 C15.02 1 13.04 1 11 1 Z " fill="#FAFAF5" transform="translate(844,413)"/>
<path d="M0 0 C2.93053328 -0.29305333 5.13198568 -0.30466086 8 0 C9.27875 0.0825 10.5575 0.165 11.875 0.25 C15 1 15 1 16.17814636 2.75578308 C17.0761836 5.2080328 17.25973891 7.0509313 17.2746582 9.6574707 C17.28895622 11.03458977 17.28895622 11.03458977 17.30354309 12.43952942 C17.30263168 13.42499252 17.30172028 14.41045563 17.30078125 15.42578125 C17.30506638 16.44673386 17.3093515 17.46768646 17.31376648 18.51957703 C17.3195068 20.67897806 17.32001224 22.83839843 17.31567383 24.99780273 C17.31252165 28.28988982 17.33595027 31.58107137 17.36132812 34.87304688 C17.36360202 36.9739572 17.36430419 39.07486994 17.36328125 41.17578125 C17.372491 42.15517166 17.38170074 43.13456207 17.39118958 44.14363098 C17.35269384 49.87607272 16.66645745 53.90372164 14 59 C12.27119018 59.05449838 10.54187288 59.09301688 8.8125 59.125 C7.84957031 59.14820313 6.88664063 59.17140625 5.89453125 59.1953125 C2.75179532 58.98325205 0.73195378 58.57594571 -2 57 C-4.15904547 52.91811313 -4.24527348 49.35110817 -4.23046875 44.78515625 C-4.23001053 44.09296494 -4.22955231 43.40077362 -4.2290802 42.68760681 C-4.22606739 41.22262864 -4.21821019 39.7576534 -4.20581055 38.29272461 C-4.18781303 36.10062689 -4.18529954 33.90896006 -4.18554688 31.71679688 C-4.17019623 24.88788231 -4.02911154 18.06616934 -3.67578125 11.24609375 C-3.61946533 10.15868896 -3.56314941 9.07128418 -3.50512695 7.95092773 C-2.93687075 4.63120193 -2.0916741 2.6366984 0 0 Z M6 2 C4.76364988 4.47270024 4.87306215 6.11166572 4.87060547 8.87695312 C4.86745331 9.89140503 4.86430115 10.90585693 4.86105347 11.9510498 C4.8630777 13.05001587 4.86510193 14.14898193 4.8671875 15.28125 C4.86623077 16.40567505 4.86527405 17.5301001 4.86428833 18.68859863 C4.86360692 21.06925513 4.86545851 23.44991347 4.86962891 25.83056641 C4.87497767 29.48474278 4.86968258 33.13879623 4.86328125 36.79296875 C4.86394204 39.10156277 4.86522321 41.41015672 4.8671875 43.71875 C4.86516327 44.81771606 4.86313904 45.91668213 4.86105347 47.0489502 C4.86420563 48.0634021 4.86735779 49.077854 4.87060547 50.12304688 C4.87179886 51.46635071 4.87179886 51.46635071 4.87301636 52.83679199 C4.86032561 55.04901042 4.86032561 55.04901042 6 57 C6.66 57 7.32 57 8 57 C9.23635012 54.52729976 9.12693785 52.88833428 9.12939453 50.12304688 C9.13254669 49.10859497 9.13569885 48.09414307 9.13894653 47.0489502 C9.13591019 45.4005011 9.13591019 45.4005011 9.1328125 43.71875 C9.13376923 42.59432495 9.13472595 41.4698999 9.13571167 40.31140137 C9.13639308 37.93074487 9.13454149 35.55008653 9.13037109 33.16943359 C9.12502233 29.51525722 9.13031742 25.86120377 9.13671875 22.20703125 C9.13605796 19.89843723 9.13477679 17.58984328 9.1328125 15.28125 C9.13483673 14.18228394 9.13686096 13.08331787 9.13894653 11.9510498 C9.13579437 10.9365979 9.13264221 9.922146 9.12939453 8.87695312 C9.12859894 7.98141724 9.12780334 7.08588135 9.12698364 6.16320801 C9.13967439 3.95098958 9.13967439 3.95098958 8 2 C7.34 2 6.68 2 6 2 Z " fill="#FAFAF5" transform="translate(989,413)"/>
<path d="M0 0 C-0.33 2.97 -0.66 5.94 -1 9 C-1.99 9.33 -2.98 9.66 -4 10 C-4.9765625 8.20963542 -5.953125 6.41927083 -6.9296875 4.62890625 C-7.91410024 2.83381685 -7.91410024 2.83381685 -10 2 C-9.88215415 9.29585012 -9.75732816 16.59155706 -9.62768555 23.88720703 C-9.58441633 26.36829939 -9.54273568 28.84941999 -9.50268555 31.33056641 C-9.44478879 34.90015161 -9.38115019 38.46959573 -9.31640625 42.0390625 C-9.29969376 43.14553131 -9.28298126 44.25200012 -9.26576233 45.39199829 C-9.17064257 50.35479545 -9.03955501 55.12408007 -8 60 C-11.96 60 -15.92 60 -20 60 C-20.33 41.52 -20.66 23.04 -21 4 C-22.98 6.31 -24.96 8.62 -27 11 C-30.57889545 9.21055227 -31.83915918 8.35364331 -34.25 5.4375 C-35.03117188 4.50744141 -35.03117188 4.50744141 -35.828125 3.55859375 C-37 2 -37 2 -37 1 C-24.66826776 -0.19684056 -12.37632072 -0.10396237 0 0 Z " fill="#FAFAF5" transform="translate(920,412)"/>
<path d="M0 0 C2.20805524 -0.0544452 4.41650554 -0.09299283 6.625 -0.125 C7.85476563 -0.14820313 9.08453125 -0.17140625 10.3515625 -0.1953125 C14.02008574 0.00107525 16.67362918 0.44899425 20 2 C22.59158766 5.54638311 22.64330319 9.38641199 22.5859375 13.66015625 C21.23936061 21.33564454 16.71487619 28.27649021 12.86816406 34.96923828 C10.18741277 39.87190608 9.36320118 43.942851 9.25 49.5 C9.22035156 50.22703125 9.19070313 50.9540625 9.16015625 51.703125 C9.09048294 53.4681823 9.04286194 55.2340882 9 57 C14.82501925 54.99588511 14.82501925 54.99588511 18.4375 50.3125 C18.953125 49.219375 19.46875 48.12625 20 47 C22 48 22 48 22.625 49.5625 C23.15437362 53.00342855 23 56.51858855 23 60 C15.08 60 7.16 60 -1 60 C-1 44.30192622 1.91198574 32.42554282 9.984375 18.9375 C11.81573995 15.44381917 12.13807193 12.28350593 12.125 8.375 C12.12757813 7.59898437 12.13015625 6.82296875 12.1328125 6.0234375 C12.12673369 3.93040752 12.12673369 3.93040752 11 2 C9.02 2 7.04 2 5 2 C4.731875 2.61875 4.46375 3.2375 4.1875 3.875 C3 6 3 6 0 8 C0 5.36 0 2.72 0 0 Z " fill="#FAFAF5" transform="translate(958,413)"/>
<path d="M0 0 C0.66902344 -0.020625 1.33804688 -0.04125 2.02734375 -0.0625 C6.42422101 -0.09705306 9.51465144 0.15558519 12.75 3.25 C13.34616529 6.10715387 13.55959868 8.20207854 13.5 11.0625 C13.48779419 12.19449829 13.48779419 12.19449829 13.4753418 13.34936523 C13.04010954 23.04576923 8.5253865 30.46585745 2.875 38.1875 C-0.7628354 43.61443477 -0.15941245 50.92534208 -0.25 57.25 C3.72918365 56.08893508 6.56852042 54.93696122 9.625 52.125 C10.22054688 51.58617187 10.81609375 51.04734375 11.4296875 50.4921875 C11.86539062 50.08226562 12.30109375 49.67234375 12.75 49.25 C14.01086514 53.19020358 13.75 55.72580299 13.75 60.25 C6.16 60.25 -1.43 60.25 -9.25 60.25 C-9.55262318 46.48064552 -9.13077867 35.87947462 -1.22265625 24.3203125 C1.95409657 19.37590118 4.18510296 14.88856002 4 8.9375 C3.98453125 8.09574219 3.9690625 7.25398438 3.953125 6.38671875 C3.87471038 4.19895391 3.87471038 4.19895391 2.75 2.25 C-0.90617562 2.5546813 -1.9963712 2.95289198 -4.4375 5.8125 C-5.035625 6.616875 -5.63375 7.42125 -6.25 8.25 C-6.91 8.25 -7.57 8.25 -8.25 8.25 C-8.29241723 5.91705225 -8.29092937 3.58297433 -8.25 1.25 C-6.286987 -0.713013 -2.67160806 0.02012511 0 0 Z " fill="#FAFAF5" transform="translate(1021.25,412.75)"/>
<path d="M0 0 C14.67381974 -0.50214592 14.67381974 -0.50214592 21 2 C23.33621603 4.26385536 23.94834691 5.55848906 24.328125 8.8046875 C24.30234375 9.81789063 24.2765625 10.83109375 24.25 11.875 C24.23453125 12.88304687 24.2190625 13.89109375 24.203125 14.9296875 C24 18 24 18 23.48461914 20.7265625 C22.94574945 24.36644402 22.95502317 27.76729463 23.04296875 31.4453125 C23.06533838 32.86587175 23.08679578 34.28644561 23.10742188 35.70703125 C23.14460517 37.92374639 23.18789108 40.13970659 23.24682617 42.35595703 C23.3013293 44.51085376 23.3303941 46.664899 23.35546875 48.8203125 C23.38278076 50.10180176 23.41009277 51.38329102 23.43823242 52.70361328 C23 56 23 56 21.20068359 58.41992188 C17.95896948 60.74745391 15.37511211 60.45967983 11.4375 60.375 C10.42913086 60.37306641 10.42913086 60.37306641 9.40039062 60.37109375 C5.74512716 60.30575637 4.1114672 60.07431147 1 58 C0.70703125 55.8359375 0.70703125 55.8359375 0.8125 53.375 C0.83957031 52.55773437 0.86664062 51.74046875 0.89453125 50.8984375 C0.92933594 50.27195312 0.96414063 49.64546875 1 49 C3.89619649 50.27337882 4.83664274 50.70879792 6.4375 53.5625 C7.79062712 56.25430285 7.79062712 56.25430285 10.6875 56.8125 C11.8321875 56.9053125 11.8321875 56.9053125 13 57 C14.44962183 54.10075634 14.22126481 51.47699645 14.31640625 48.2421875 C14.3475779 47.24761032 14.3475779 47.24761032 14.37937927 46.23294067 C14.44479231 44.11373306 14.50372105 41.994401 14.5625 39.875 C14.60569309 38.43878919 14.64930764 37.00259098 14.69335938 35.56640625 C14.80046499 32.04440406 14.90175575 28.52226175 15 25 C13.68 24.67 12.36 24.34 11 24 C11 23.01 11 22.02 11 21 C11.99 20.34 12.98 19.68 14 19 C14.40414686 15.71423612 14.40414686 15.71423612 14.25 12 C14.23453125 10.741875 14.2190625 9.48375 14.203125 8.1875 C14.21436312 5.10420469 14.21436312 5.10420469 13 3 C11.02 3 9.04 3 7 3 C6.34 4.98 5.68 6.96 5 9 C3.68 9 2.36 9 1 9 C0.67 6.03 0.34 3.06 0 0 Z " fill="#FAFAF5" transform="translate(1037,412)"/>
<path d="M0 0 C3.83378636 1.81233537 5.53351018 3.30026527 7.875 6.8125 C9.21267523 10.60257982 9.56062395 13.00555439 9 17 C6.92578356 20.92591157 4.6987753 23.5341498 1 26 C-5.33171214 26.85234586 -10.41991314 26.02254705 -16 23 C-18.99480287 20.00519713 -18.95881774 17.75500804 -19.1875 13.5625 C-19.00318194 10.06045677 -18.71850011 8.02783353 -17 5 C-11.43309897 -0.01021093 -7.36263695 -0.80299113 0 0 Z " fill="#FAFAF5" transform="translate(1310,147)"/>
<path d="M0 0 C3.69556549 1.95474023 6.36317343 4.17724639 7.765625 8.19140625 C8.54750617 13.21414288 8.02328823 16.76739647 5 21 C1.29643664 24.26785002 -2.09078272 24.32535122 -6.81640625 24.30078125 C-9.27511604 23.96210387 -10.90085222 23.31595165 -13 22 C-15.92185302 16.44847926 -15.17766278 10.09975537 -15 4 C-9.99763846 1.08953511 -5.92987342 -1.0781588 0 0 Z " fill="#FAFAF5" transform="translate(615,277)"/>
<path d="M0 0 C3.3 0 6.6 0 10 0 C10 3.96 10 7.92 10 12 C6.7 12 3.4 12 0 12 C0 8.04 0 4.08 0 0 Z " fill="#FAFAF5" transform="translate(932,461)"/>
</svg>
